<svg width="358" height="531" viewBox="0 0 358 531" fill="none" xmlns="http://www.w3.org/2000/svg">
<path opacity="0.1" d="M255.139 2.84448C253.267 31.6594 270.661 50.1221 287.176 57.4395C294.805 60.8127 302.712 63.4668 309.591 69.4202C320.706 79.0216 324.177 94.6398 321.92 112.923C320.763 122.281 317.913 130.899 316.455 140.003C315.173 147.559 314.403 155.284 314.155 163.066C313.848 178.251 316.741 193.52 324.806 203.618C334.428 215.715 347.792 213.6 358 204.369V0H255.432C255.295 0.93856 255.198 1.88845 255.139 2.84448Z" fill="#17907C"/>
<g opacity="0.1">
<path d="M0 503.08V531H19.6972C12.2046 523.247 5.56112 513.83 0 503.08Z" fill="#17907C"/>
<path d="M358 531V380.557C344.754 385.177 333.234 396.838 326.245 414.828C322.766 423.791 320.596 434.071 320.732 444.468C320.89 456.437 324.362 466.505 329.188 475.84C334.916 486.938 341.869 497.728 341.876 512.627C341.831 519.015 340.795 525.302 338.847 531H358Z" fill="#17907C"/>
<path d="M122.901 30.1289C127.229 20.8322 130.669 10.6934 133.126 0L0 0V373.718C4.16712 362.492 8.4488 351.416 11.7925 339.989C16.6613 323.411 19.3893 306.143 18.2365 287.951C16.8904 266.817 11.6708 246.809 9.31516 225.941C5.14804 189.1 9.83068 149.976 27.344 121.918C37.368 105.881 49.2393 97.4916 62.5927 89.3461C84.6598 75.8799 108.674 60.534 122.901 30.1289Z" fill="#17907C"/>
<path d="M209.144 525.329C189.601 517.825 169.388 514.894 149.236 516.642C133.406 517.985 117.745 522.171 102.596 529.11C100.526 529.534 98.4786 530.166 96.4667 531H222.003C217.75 528.94 213.475 527.007 209.144 525.329Z" fill="#17907C"/>
</g>
</svg>
