<svg width="70" height="57" viewBox="0 0 70 57" fill="none" xmlns="http://www.w3.org/2000/svg">
<g clip-path="url(#clip0_51_300)">
<path d="M69.0045 41.3079L58.1868 28.7689C57.9922 28.5435 57.8828 28.2571 57.8776 27.9595C57.8724 27.6619 57.9716 27.3718 58.1581 27.1398L68.9759 13.6685C69.1285 13.4783 69.2232 13.2481 69.2488 13.0056C69.2743 12.763 69.2296 12.5182 69.12 12.3003C69.0104 12.0824 68.8405 11.9006 68.6304 11.7765C68.4204 11.6524 68.1792 11.5913 67.9355 11.6004L50.8116 12.2368C47.2896 12.3654 43.8135 13.0782 40.5252 14.3462C38.7782 15.0174 37.0938 15.8415 35.4917 16.8089C32.0629 18.9112 28.2708 20.353 24.3113 21.0596L23.0386 21.3014L17.1334 22.3387L15.1353 22.6886C15.1641 22.7926 15.1822 22.8992 15.1894 23.0068L15.3071 25.0717C15.3187 25.2804 15.2891 25.4894 15.2198 25.6867C15.1506 25.8839 15.0432 26.0656 14.9037 26.2214C14.7643 26.3771 14.5955 26.5038 14.407 26.5942C14.2185 26.6847 14.0141 26.7371 13.8053 26.7485H13.7163C13.3093 26.7491 12.9176 26.5938 12.6217 26.3144C12.3258 26.0351 12.1482 25.653 12.1254 25.2467L12.0141 23.22L1.0595 25.129C0.764523 25.1807 0.497208 25.3347 0.304583 25.564C0.111957 25.7932 0.00635051 26.0831 0.00634766 26.3826V31.7628C0.0115834 32.0651 0.124287 32.3557 0.324255 32.5825C0.524222 32.8093 0.798398 32.9575 1.09768 33.0005C2.78849 33.2598 4.33056 34.116 5.44468 35.414C6.5588 36.712 7.17132 38.366 7.17132 40.0766C7.17132 41.7872 6.5588 43.4412 5.44468 44.7392C4.33056 46.0372 2.78849 46.8934 1.09768 47.1527C0.798398 47.1957 0.524222 47.3439 0.324255 47.5707C0.124287 47.7975 0.0115834 48.088 0.00634766 48.3903V55.6573C0.0083464 55.8413 0.0502225 56.0227 0.129089 56.189C0.207955 56.3552 0.321944 56.5024 0.463182 56.6203C0.60442 56.7383 0.769553 56.8242 0.947203 56.8722C1.12485 56.9201 1.31079 56.929 1.4922 56.8982L13.7735 54.741L13.6017 51.712C13.59 51.5031 13.6196 51.2939 13.6887 51.0964C13.7579 50.899 13.8652 50.717 14.0047 50.561C14.1441 50.405 14.3129 50.278 14.5015 50.1873C14.69 50.0965 14.8946 50.0438 15.1035 50.0321C15.3124 50.0204 15.5216 50.05 15.719 50.1191C15.9165 50.1882 16.0985 50.2956 16.2545 50.435C16.4105 50.5745 16.5375 50.7433 16.6282 50.9319C16.719 51.1204 16.7717 51.3249 16.7834 51.5339L16.9298 54.1874L24.2477 52.9147C28.2071 52.2081 31.9993 50.7663 35.4281 48.664C40.0799 45.8305 45.3811 44.2387 50.8243 44.041L68.085 43.4046C68.3236 43.3953 68.5549 43.3191 68.7522 43.1846C68.9496 43.0501 69.1051 42.8628 69.201 42.6441C69.2969 42.4253 69.3293 42.184 69.2946 41.9478C69.2598 41.7115 69.1593 41.4897 69.0045 41.3079ZM12.3322 29.052C12.3205 28.8431 12.3501 28.6339 12.4192 28.4365C12.4884 28.239 12.5957 28.057 12.7352 27.901C12.8746 27.745 13.0434 27.618 13.232 27.5273C13.4205 27.4365 13.6251 27.3838 13.834 27.3721C14.0429 27.3604 14.2521 27.39 14.4496 27.4591C14.647 27.5282 14.829 27.6356 14.985 27.775C15.141 27.9145 15.268 28.0833 15.3587 28.2718C15.4495 28.4604 15.5022 28.6649 15.5139 28.8738L15.7271 32.6505C15.7391 32.8592 15.7099 33.0683 15.6411 33.2657C15.5723 33.4632 15.4652 33.6451 15.326 33.8011C15.1869 33.9571 15.0183 34.0842 14.83 34.175C14.6416 34.2659 14.4373 34.3187 14.2285 34.3304H14.1362C13.7293 34.3311 13.3376 34.1758 13.0417 33.8964C12.7458 33.6171 12.5682 33.235 12.5454 32.8287L12.3322 29.052ZM12.7554 36.6085C12.7318 36.1866 12.8767 35.7726 13.1583 35.4575C13.44 35.1425 13.8352 34.9522 14.2571 34.9286C14.6791 34.905 15.0931 35.0499 15.4081 35.3316C15.7232 35.6132 15.9135 36.0084 15.9371 36.4304L16.1503 40.2102C16.1737 40.6312 16.029 41.0443 15.748 41.3588C15.467 41.6732 15.0727 41.8632 14.6517 41.887H14.5594C14.1525 41.8876 13.7608 41.7323 13.4649 41.4529C13.169 41.1736 12.9914 40.7915 12.9686 40.3852L12.7554 36.6085ZM15.0685 49.4435H14.9762C14.5693 49.4441 14.1776 49.2888 13.8817 49.0095C13.5858 48.7301 13.4082 48.348 13.3854 47.9417L13.1785 44.1714C13.1549 43.7495 13.2999 43.3355 13.5815 43.0204C13.8631 42.7054 14.2584 42.5151 14.6803 42.4915C15.1022 42.4678 15.5163 42.6128 15.8313 42.8944C16.1464 43.1761 16.3366 43.5713 16.3602 43.9932L16.5734 47.7731C16.5951 48.1941 16.4488 48.6065 16.1666 48.9197C15.8844 49.2329 15.4894 49.4213 15.0685 49.4435Z" fill="#292F2E"/>
<path d="M46.5673 13.9454C46.1534 10.5674 44.663 7.41247 42.3165 4.94752L42.1734 4.80118L41.8838 4.51163C41.8361 4.46391 41.7852 4.41938 41.7375 4.36847C38.7808 1.55925 34.8582 -0.00712967 30.7797 -0.00712967C26.7013 -0.00712967 22.7787 1.55925 19.822 4.36847C19.7743 4.41938 19.7234 4.46391 19.6756 4.51163L19.3861 4.80118L19.2429 4.94752C16.4089 7.9301 14.8406 11.8947 14.8673 16.0089C14.894 20.1231 16.5136 24.067 19.3861 27.0126C19.4338 27.0571 19.4816 27.1112 19.5293 27.1557L19.6756 27.2989L30.7797 38.4062L41.8838 27.3085L42.0302 27.1653L42.1734 27.0221C43.8419 25.3131 45.1034 23.2497 45.8642 20.9857C46.6249 18.7216 46.8652 16.3151 46.5673 13.9454ZM30.7797 26.074C28.9376 26.0738 27.1352 25.5385 25.5916 24.533C24.0481 23.5276 22.8299 22.0953 22.0851 20.4105C21.3404 18.7256 21.1012 16.8606 21.3967 15.0423C21.6922 13.224 22.5095 11.5307 23.7494 10.1683C24.9893 8.80589 26.5983 7.83302 28.3808 7.36803C30.1633 6.90303 32.0424 6.96592 33.7899 7.54904C35.5373 8.13215 37.0776 9.21039 38.2237 10.6526C39.3697 12.0949 40.072 13.839 40.2453 15.673C40.2739 15.9657 40.2866 16.2648 40.2866 16.5671C40.287 17.8158 40.0415 19.0524 39.5639 20.2062C39.0863 21.36 38.3861 22.4084 37.5033 23.2915C36.6204 24.1746 35.5722 24.8752 34.4186 25.3532C33.265 25.8311 32.0285 26.0771 30.7797 26.0771V26.074Z" fill="#FFB52F"/>
</g>
<defs>
<clipPath id="clip0_51_300">
<rect width="69.3163" height="56.93" fill="white"/>
</clipPath>
</defs>
</svg>
