<svg width="73" height="44" viewBox="0 0 73 44" fill="none" xmlns="http://www.w3.org/2000/svg">
<path d="M10.5937 28.9177H6.64936V40H4.21579V28.9177H0.271403V26.9184H10.5937V28.9177ZM14.1804 30.718V40H11.9368V30.718H14.1804ZM14.488 28.0131C14.488 28.206 14.4487 28.387 14.3703 28.5559C14.2919 28.7247 14.1864 28.8725 14.0537 28.9991C13.9271 29.1258 13.7763 29.2283 13.6014 29.3067C13.4265 29.3791 13.2395 29.4153 13.0405 29.4153C12.8475 29.4153 12.6635 29.3791 12.4886 29.3067C12.3197 29.2283 12.172 29.1258 12.0453 28.9991C11.9187 28.8725 11.8161 28.7247 11.7377 28.5559C11.6654 28.387 11.6292 28.206 11.6292 28.0131C11.6292 27.814 11.6654 27.6271 11.7377 27.4522C11.8161 27.2772 11.9187 27.1265 12.0453 26.9998C12.172 26.8732 12.3197 26.7736 12.4886 26.7013C12.6635 26.6229 12.8475 26.5837 13.0405 26.5837C13.2395 26.5837 13.4265 26.6229 13.6014 26.7013C13.7763 26.7736 13.9271 26.8732 14.0537 26.9998C14.1864 27.1265 14.2919 27.2772 14.3703 27.4522C14.4487 27.6271 14.488 27.814 14.488 28.0131ZM23.1078 32.6812C23.0415 32.7656 22.9751 32.832 22.9088 32.8802C22.8485 32.9285 22.758 32.9526 22.6374 32.9526C22.5228 32.9526 22.4112 32.9194 22.3026 32.8531C22.1941 32.7807 22.0644 32.7023 21.9136 32.6178C21.7629 32.5274 21.5819 32.449 21.3708 32.3826C21.1658 32.3103 20.9094 32.2741 20.6019 32.2741C20.2098 32.2741 19.8661 32.3464 19.5705 32.4912C19.275 32.6299 19.0277 32.832 18.8287 33.0973C18.6357 33.3627 18.491 33.6854 18.3945 34.0653C18.298 34.4393 18.2497 34.8645 18.2497 35.3409C18.2497 35.8355 18.301 36.2758 18.4035 36.6617C18.5121 37.0477 18.6659 37.3734 18.8649 37.6388C19.0639 37.8981 19.3052 38.0972 19.5886 38.2359C19.8721 38.3686 20.1917 38.4349 20.5476 38.4349C20.9034 38.4349 21.1899 38.3927 21.407 38.3083C21.6302 38.2178 21.8171 38.1213 21.9679 38.0188C22.1187 37.9102 22.2484 37.8137 22.3569 37.7293C22.4715 37.6388 22.5982 37.5936 22.7369 37.5936C22.9178 37.5936 23.0535 37.6629 23.144 37.8016L23.7863 38.6158C23.539 38.9053 23.2707 39.1496 22.9812 39.3486C22.6917 39.5416 22.3901 39.6984 22.0765 39.8191C21.7689 39.9337 21.4492 40.0151 21.1175 40.0633C20.7918 40.1116 20.4662 40.1357 20.1405 40.1357C19.5675 40.1357 19.0277 40.0302 18.5211 39.8191C18.0145 39.6019 17.5712 39.2883 17.1912 38.8782C16.8113 38.4681 16.5097 37.9675 16.2866 37.3764C16.0694 36.7794 15.9609 36.1008 15.9609 35.3409C15.9609 34.6594 16.0574 34.0291 16.2504 33.4502C16.4494 32.8651 16.7389 32.3615 17.1189 31.9393C17.4988 31.5111 17.9693 31.1764 18.5302 30.9352C19.0911 30.6939 19.7364 30.5733 20.4662 30.5733C21.1597 30.5733 21.7659 30.6849 22.2846 30.908C22.8093 31.1312 23.2797 31.4508 23.6958 31.867L23.1078 32.6812ZM27.4217 26.5565V34.2553H27.8378C27.9886 34.2553 28.1062 34.2372 28.1907 34.201C28.2811 34.1588 28.3716 34.0774 28.4621 33.9568L30.769 31.107C30.8655 30.9804 30.971 30.8839 31.0856 30.8175C31.2063 30.7512 31.3601 30.718 31.547 30.718H33.5916L30.7057 34.1648C30.5006 34.4362 30.2775 34.6443 30.0362 34.7891C30.1629 34.8795 30.2744 34.9851 30.3709 35.1057C30.4735 35.2263 30.57 35.356 30.6604 35.4947L33.7544 40H31.737C31.5621 40 31.4113 39.9729 31.2847 39.9186C31.158 39.8583 31.0525 39.7527 30.968 39.6019L28.5978 36.0828C28.5133 35.944 28.4259 35.8536 28.3354 35.8114C28.245 35.7691 28.1093 35.748 27.9283 35.748H27.4217V40H25.1872V26.5565H27.4217ZM40.3552 34.2915C40.3552 34.002 40.3129 33.7306 40.2285 33.4773C40.1501 33.218 40.0295 32.9918 39.8666 32.7988C39.7038 32.6058 39.4957 32.455 39.2424 32.3464C38.9951 32.2319 38.7056 32.1746 38.3739 32.1746C37.7286 32.1746 37.219 32.3585 36.845 32.7264C36.4771 33.0943 36.2419 33.616 36.1394 34.2915H40.3552ZM36.0941 35.6395C36.1303 36.1159 36.2148 36.5291 36.3474 36.8789C36.4801 37.2226 36.655 37.5091 36.8722 37.7383C37.0893 37.9615 37.3456 38.1303 37.6411 38.2449C37.9427 38.3535 38.2744 38.4078 38.6363 38.4078C38.9981 38.4078 39.3088 38.3656 39.5681 38.2811C39.8335 38.1967 40.0626 38.1032 40.2556 38.0007C40.4547 37.8981 40.6266 37.8047 40.7713 37.7202C40.9221 37.6358 41.0668 37.5936 41.2056 37.5936C41.3925 37.5936 41.5312 37.6629 41.6217 37.8016L42.264 38.6158C42.0167 38.9053 41.7393 39.1496 41.4317 39.3486C41.1241 39.5416 40.8015 39.6984 40.4637 39.8191C40.132 39.9337 39.7912 40.0151 39.4414 40.0633C39.0977 40.1116 38.7629 40.1357 38.4372 40.1357C37.7919 40.1357 37.1918 40.0302 36.6369 39.8191C36.0821 39.6019 35.5996 39.2853 35.1895 38.8692C34.7793 38.447 34.4567 37.9283 34.2215 37.3131C33.9862 36.6919 33.8686 35.9742 33.8686 35.16C33.8686 34.5267 33.9712 33.9326 34.1762 33.3778C34.3813 32.8169 34.6738 32.3314 35.0538 31.9212C35.4398 31.5051 35.9072 31.1764 36.456 30.9352C37.0109 30.6939 37.6351 30.5733 38.3287 30.5733C38.9137 30.5733 39.4535 30.6668 39.9481 30.8537C40.4426 31.0407 40.8678 31.3151 41.2236 31.677C41.5795 32.0328 41.8569 32.4731 42.056 32.9978C42.261 33.5165 42.3635 34.1106 42.3635 34.78C42.3635 35.1178 42.3274 35.347 42.255 35.4676C42.1826 35.5822 42.0439 35.6395 41.8388 35.6395H36.0941ZM47.0461 40.1447C46.2379 40.1447 45.6167 39.9186 45.1825 39.4662C44.7542 39.0079 44.5401 38.3776 44.5401 37.5755V32.3917H43.5902C43.4696 32.3917 43.3671 32.3525 43.2826 32.2741C43.1982 32.1957 43.156 32.0781 43.156 31.9212V31.0347L44.6487 30.7904L45.1191 28.2573C45.1493 28.1367 45.2066 28.0432 45.291 27.9769C45.3754 27.9105 45.484 27.8774 45.6167 27.8774H46.7747V30.7995H49.2535V32.3917H46.7747V37.4217C46.7747 37.7112 46.844 37.9373 46.9828 38.1002C47.1275 38.263 47.3235 38.3444 47.5708 38.3444C47.7095 38.3444 47.8241 38.3294 47.9146 38.2992C48.0111 38.263 48.0925 38.2268 48.1588 38.1906C48.2312 38.1545 48.2945 38.1213 48.3488 38.0911C48.4031 38.0549 48.4574 38.0369 48.5117 38.0369C48.578 38.0369 48.6323 38.0549 48.6745 38.0911C48.7167 38.1213 48.7619 38.1695 48.8102 38.2359L49.4797 39.3215C49.154 39.5929 48.78 39.798 48.3579 39.9367C47.9357 40.0754 47.4984 40.1447 47.0461 40.1447ZM61.5606 35.0152L60.1403 30.9985C60.0558 30.7874 59.9654 30.5401 59.8689 30.2566C59.7784 29.9732 59.6909 29.6656 59.6065 29.3339C59.5221 29.6716 59.4316 29.9852 59.3351 30.2747C59.2446 30.5582 59.1572 30.8055 59.0728 31.0166L57.6615 35.0152H61.5606ZM66.1202 40H64.0123C63.7771 40 63.5841 39.9457 63.4333 39.8372C63.2885 39.7226 63.18 39.5778 63.1076 39.4029L62.221 36.897H56.992L56.1054 39.4029C56.0451 39.5537 55.9396 39.6924 55.7888 39.8191C55.638 39.9397 55.448 40 55.2188 40H53.0928L58.2224 26.8732H60.9997L66.1202 40ZM69.6466 40.1447C69.2244 40.1447 68.8505 40.0844 68.5248 39.9638C68.1991 39.8372 67.9247 39.6592 67.7015 39.4301C67.4784 39.2009 67.3095 38.9234 67.1949 38.5978C67.0803 38.2721 67.023 37.9042 67.023 37.494V32.4641H66.1455C66.0128 32.4641 65.8982 32.4218 65.8017 32.3374C65.7112 32.253 65.666 32.1263 65.666 31.9574V30.9804L67.1587 30.709L67.6653 28.2935C67.7317 28.0221 67.9156 27.8864 68.2172 27.8864H69.5199V30.7271H71.9263V32.4641H69.5199V37.3312C69.5199 37.5905 69.5802 37.7956 69.7008 37.9464C69.8275 38.0972 70.0054 38.1726 70.2346 38.1726C70.3552 38.1726 70.4578 38.1605 70.5422 38.1364C70.6266 38.1062 70.699 38.0761 70.7593 38.0459C70.8196 38.0097 70.8739 37.9796 70.9222 37.9554C70.9764 37.9253 71.0307 37.9102 71.085 37.9102C71.1574 37.9102 71.2177 37.9283 71.2659 37.9645C71.3142 37.9946 71.3624 38.0489 71.4107 38.1273L72.1616 39.3215C71.8178 39.5929 71.4288 39.798 70.9945 39.9367C70.5603 40.0754 70.111 40.1447 69.6466 40.1447Z" fill="#137363"/>
<path d="M50.4904 15.862L46.3371 11.0479C46.2624 10.9614 46.2204 10.8515 46.2184 10.7372C46.2164 10.6229 46.2545 10.5116 46.3261 10.4225L50.4794 5.25049C50.538 5.17744 50.5743 5.08909 50.5842 4.99595C50.594 4.90282 50.5768 4.80883 50.5347 4.72517C50.4926 4.64151 50.4274 4.57171 50.3468 4.52407C50.2661 4.47644 50.1735 4.45298 50.0799 4.45649L43.5056 4.7008C42.1534 4.75017 40.8188 5.02386 39.5563 5.51068C38.8856 5.76835 38.2389 6.08473 37.6239 6.45615C36.3074 7.26331 34.8515 7.81684 33.3314 8.08813L32.8427 8.18097L30.5756 8.57919L29.8084 8.71356C29.8195 8.75347 29.8264 8.7944 29.8292 8.83571L29.8744 9.62849C29.8788 9.70863 29.8675 9.78886 29.8409 9.86459C29.8143 9.94033 29.7731 10.0101 29.7195 10.0699C29.666 10.1297 29.6012 10.1783 29.5288 10.213C29.4565 10.2478 29.378 10.2679 29.2978 10.2722H29.2636C29.1074 10.2725 28.957 10.2129 28.8434 10.1056C28.7298 9.99837 28.6616 9.85167 28.6529 9.69568L28.6101 8.91756L24.4043 9.65049C24.2911 9.67032 24.1885 9.72945 24.1145 9.81748C24.0405 9.90551 24 10.0168 24 10.1318V12.1974C24.002 12.3135 24.0453 12.425 24.1221 12.5121C24.1988 12.5992 24.3041 12.6561 24.419 12.6726C25.0681 12.7721 25.6602 13.1008 26.0879 13.5992C26.5157 14.0975 26.7508 14.7325 26.7508 15.3893C26.7508 16.046 26.5157 16.6811 26.0879 17.1794C25.6602 17.6777 25.0681 18.0064 24.419 18.106C24.3041 18.1225 24.1988 18.1794 24.1221 18.2665C24.0453 18.3536 24.002 18.4651 24 18.5812V21.3712C24.0008 21.4418 24.0168 21.5115 24.0471 21.5753C24.0774 21.6391 24.1212 21.6956 24.1754 21.7409C24.2296 21.7862 24.293 21.8192 24.3612 21.8376C24.4294 21.856 24.5008 21.8594 24.5705 21.8476L29.2856 21.0194L29.2197 19.8565C29.2152 19.7763 29.2265 19.696 29.2531 19.6201C29.2796 19.5443 29.3208 19.4745 29.3744 19.4146C29.4279 19.3547 29.4927 19.3059 29.5651 19.2711C29.6375 19.2362 29.716 19.216 29.7962 19.2115C29.8764 19.207 29.9567 19.2184 30.0326 19.2449C30.1084 19.2714 30.1782 19.3127 30.2381 19.3662C30.298 19.4197 30.3468 19.4846 30.3816 19.5569C30.4165 19.6293 30.4367 19.7079 30.4412 19.7881L30.4974 20.8068L33.3069 20.3182C34.8271 20.0469 36.283 19.4934 37.5994 18.6862C39.3854 17.5984 41.4207 16.9873 43.5105 16.9113L50.1373 16.667C50.229 16.6635 50.3177 16.6342 50.3935 16.5825C50.4693 16.5309 50.529 16.459 50.5658 16.375C50.6026 16.291 50.6151 16.1984 50.6017 16.1077C50.5884 16.017 50.5498 15.9318 50.4904 15.862ZM28.7323 11.1566C28.7278 11.0764 28.7391 10.9961 28.7657 10.9203C28.7922 10.8445 28.8334 10.7746 28.887 10.7147C28.9405 10.6549 29.0053 10.6061 29.0777 10.5713C29.1501 10.5364 29.2286 10.5162 29.3088 10.5117C29.389 10.5072 29.4693 10.5185 29.5452 10.5451C29.621 10.5716 29.6908 10.6128 29.7507 10.6664C29.8106 10.7199 29.8594 10.7847 29.8942 10.8571C29.9291 10.9295 29.9493 11.008 29.9538 11.0882L30.0356 12.5382C30.0403 12.6183 30.029 12.6986 30.0026 12.7744C29.9762 12.8502 29.9351 12.9201 29.8817 12.98C29.8282 13.0399 29.7635 13.0886 29.6912 13.1235C29.6189 13.1584 29.5404 13.1787 29.4603 13.1832H29.4249C29.2686 13.1834 29.1183 13.1238 29.0046 13.0166C28.891 12.9093 28.8228 12.7626 28.8141 12.6066L28.7323 11.1566ZM28.8947 14.0578C28.8857 13.8958 28.9413 13.7369 29.0494 13.6159C29.1576 13.495 29.3093 13.4219 29.4713 13.4128C29.6333 13.4038 29.7922 13.4594 29.9132 13.5675C30.0341 13.6757 30.1072 13.8274 30.1163 13.9894L30.1981 15.4406C30.2071 15.6022 30.1516 15.7608 30.0437 15.8816C29.9358 16.0023 29.7844 16.0752 29.6228 16.0843H29.5873C29.4311 16.0846 29.2807 16.025 29.1671 15.9177C29.0535 15.8105 28.9853 15.6638 28.9766 15.5078L28.8947 14.0578ZM29.7828 18.9855H29.7474C29.5911 18.9858 29.4407 18.9261 29.3271 18.8189C29.2135 18.7116 29.1453 18.5649 29.1366 18.4089L29.0572 16.9614C29.0481 16.7994 29.1038 16.6405 29.2119 16.5195C29.32 16.3986 29.4718 16.3255 29.6338 16.3164C29.7957 16.3074 29.9547 16.363 30.0757 16.4711C30.1966 16.5793 30.2697 16.731 30.2787 16.893L30.3606 18.3442C30.3689 18.5058 30.3127 18.6642 30.2044 18.7844C30.096 18.9047 29.9444 18.977 29.7828 18.9855Z" fill="#137363"/>
<path d="M41.8761 5.35676C41.7172 4.05987 41.145 2.8486 40.2441 1.90223L40.1892 1.84605L40.078 1.73488C40.0597 1.71656 40.0401 1.69946 40.0218 1.67992C38.8867 0.601378 37.3806 0 35.8148 0C34.249 0 32.743 0.601378 31.6078 1.67992C31.5895 1.69946 31.57 1.71656 31.5516 1.73488L31.4405 1.84605L31.3855 1.90223C30.2974 3.04733 29.6953 4.56945 29.7056 6.14901C29.7158 7.72858 30.3376 9.24275 31.4405 10.3736C31.4588 10.3907 31.4771 10.4115 31.4954 10.4286L31.5516 10.4836L35.8148 14.748L40.078 10.4872L40.1342 10.4323L40.1892 10.3773C40.8297 9.72114 41.3141 8.92897 41.6062 8.05974C41.8982 7.1905 41.9905 6.26659 41.8761 5.35676ZM35.8148 10.0133C35.1076 10.0132 34.4156 9.80768 33.823 9.42166C33.2303 9.03564 32.7626 8.48577 32.4767 7.83889C32.1908 7.19201 32.099 6.47599 32.2124 5.7779C32.3258 5.0798 32.6396 4.42971 33.1157 3.90664C33.5917 3.38357 34.2094 3.01006 34.8938 2.83153C35.5781 2.65301 36.2996 2.67715 36.9705 2.90103C37.6414 3.1249 38.2328 3.53887 38.6728 4.09259C39.1127 4.64631 39.3824 5.31594 39.4489 6.02005C39.4599 6.13243 39.4648 6.24726 39.4648 6.36331C39.4649 6.84273 39.3707 7.31749 39.1873 7.76047C39.0039 8.20344 38.7351 8.60595 38.3962 8.94501C38.0572 9.28407 37.6548 9.55304 37.2119 9.73654C36.769 9.92004 36.2942 10.0145 35.8148 10.0145V10.0133Z" fill="#FFB52F"/>
</svg>
