<svg width="56" height="32" viewBox="0 0 56 32" fill="none" xmlns="http://www.w3.org/2000/svg">
<g clip-path="url(#clip0_170_5981)">
<path d="M36.771 11.9548L33.7861 8.49493C33.7324 8.43276 33.7023 8.35373 33.7008 8.27161C33.6994 8.18948 33.7268 8.10945 33.7782 8.04543L36.7631 4.32834C36.8052 4.27584 36.8314 4.21234 36.8384 4.1454C36.8455 4.07847 36.8332 4.01092 36.8029 3.95079C36.7727 3.89067 36.7258 3.8405 36.6678 3.80627C36.6099 3.77203 36.5433 3.75517 36.4761 3.75769L31.7511 3.93328C30.7793 3.96876 29.8201 4.16546 28.9128 4.51533C28.4308 4.70052 27.966 4.9279 27.5239 5.19484C26.5778 5.77494 25.5315 6.17276 24.4389 6.36774L24.0878 6.43446L22.4584 6.72066L21.907 6.81723C21.915 6.84591 21.92 6.87533 21.922 6.90502L21.9544 7.47479C21.9576 7.53238 21.9495 7.59004 21.9304 7.64447C21.9113 7.6989 21.8816 7.74903 21.8431 7.792C21.8047 7.83497 21.7581 7.86993 21.7061 7.89489C21.6541 7.91984 21.5977 7.93431 21.5401 7.93745H21.5155C21.4032 7.93763 21.2951 7.89477 21.2135 7.81769C21.1318 7.74061 21.0828 7.63518 21.0765 7.52308L21.0458 6.96384L18.0231 7.49059C17.9417 7.50485 17.868 7.54734 17.8148 7.61061C17.7617 7.67388 17.7325 7.75386 17.7325 7.83649V9.32105C17.734 9.40446 17.7651 9.48464 17.8203 9.54721C17.8754 9.60979 17.9511 9.65068 18.0337 9.66256C18.5002 9.7341 18.9257 9.97034 19.2331 10.3285C19.5405 10.6867 19.7096 11.143 19.7096 11.615C19.7096 12.087 19.5405 12.5434 19.2331 12.9016C18.9257 13.2597 18.5002 13.496 18.0337 13.5675C17.9511 13.5794 17.8754 13.6203 17.8203 13.6829C17.7651 13.7454 17.734 13.8256 17.7325 13.909V15.9142C17.7331 15.965 17.7447 16.015 17.7664 16.0609C17.7882 16.1068 17.8196 16.1474 17.8586 16.1799C17.8976 16.2125 17.9431 16.2362 17.9922 16.2494C18.0412 16.2626 18.0925 16.2651 18.1425 16.2566L21.5313 15.6614L21.4839 14.8256C21.4807 14.7679 21.4888 14.7102 21.5079 14.6557C21.527 14.6012 21.5566 14.551 21.5951 14.508C21.6335 14.4649 21.6801 14.4299 21.7321 14.4049C21.7842 14.3798 21.8406 14.3653 21.8983 14.362C21.9559 14.3588 22.0136 14.367 22.0681 14.386C22.1226 14.4051 22.1728 14.4347 22.2158 14.4732C22.2589 14.5117 22.2939 14.5583 22.319 14.6103C22.344 14.6623 22.3586 14.7188 22.3618 14.7764L22.4022 15.5086L24.4214 15.1574C25.5139 14.9625 26.5603 14.5646 27.5064 13.9845C28.7899 13.2027 30.2527 12.7635 31.7546 12.7089L36.5173 12.5333C36.5832 12.5308 36.647 12.5097 36.7014 12.4726C36.7559 12.4355 36.7988 12.3838 36.8253 12.3235C36.8517 12.2631 36.8607 12.1965 36.8511 12.1314C36.8415 12.0662 36.8138 12.005 36.771 11.9548ZM21.1336 8.57306C21.1304 8.51541 21.1385 8.4577 21.1576 8.40321C21.1767 8.34872 21.2063 8.29851 21.2448 8.25547C21.2833 8.21243 21.3298 8.17738 21.3819 8.15234C21.4339 8.1273 21.4903 8.11275 21.548 8.10952C21.6056 8.10629 21.6633 8.11445 21.7178 8.13353C21.7723 8.15261 21.8225 8.18223 21.8656 8.22071C21.9086 8.25919 21.9436 8.30577 21.9687 8.35779C21.9937 8.40981 22.0083 8.46625 22.0115 8.5239L22.0703 9.56598C22.0737 9.62358 22.0656 9.68126 22.0466 9.73574C22.0276 9.79022 21.9981 9.84042 21.9597 9.88347C21.9213 9.92652 21.8748 9.96158 21.8228 9.98664C21.7708 10.0117 21.7144 10.0263 21.6568 10.0295H21.6314C21.5191 10.0297 21.411 9.98684 21.3294 9.90977C21.2477 9.83269 21.1987 9.72725 21.1924 9.61515L21.1336 8.57306ZM21.2504 10.6581C21.2438 10.5417 21.2838 10.4275 21.3615 10.3405C21.4393 10.2536 21.5483 10.2011 21.6647 10.1946C21.7811 10.1881 21.8954 10.228 21.9823 10.3058C22.0693 10.3835 22.1218 10.4925 22.1283 10.6089L22.1871 11.6519C22.1936 11.7681 22.1536 11.8821 22.0761 11.9688C21.9986 12.0556 21.8898 12.108 21.7736 12.1146H21.7481C21.6359 12.1148 21.5278 12.0719 21.4461 11.9948C21.3645 11.9177 21.3155 11.8123 21.3092 11.7002L21.2504 10.6581ZM21.8886 14.1996H21.8631C21.7509 14.1998 21.6428 14.1569 21.5611 14.0799C21.4795 14.0028 21.4305 13.8974 21.4242 13.7852L21.3671 12.7449C21.3606 12.6285 21.4006 12.5143 21.4783 12.4273C21.556 12.3404 21.6651 12.2879 21.7815 12.2814C21.8979 12.2749 22.0122 12.3149 22.0991 12.3926C22.186 12.4703 22.2385 12.5793 22.245 12.6958L22.3039 13.7387C22.3098 13.8549 22.2695 13.9687 22.1916 14.0551C22.1137 14.1415 22.0048 14.1935 21.8886 14.1996Z" fill="white"/>
<path d="M30.5799 4.40468C30.4657 3.47262 30.0545 2.60208 29.407 1.92193L29.3675 1.88155L29.2877 1.80166C29.2745 1.78849 29.2604 1.77621 29.2473 1.76216C28.4314 0.987017 27.3491 0.55481 26.2237 0.55481C25.0984 0.55481 24.016 0.987017 23.2002 1.76216C23.187 1.77621 23.173 1.78849 23.1598 1.80166L23.0799 1.88155L23.0404 1.92193C22.2584 2.74491 21.8257 3.83885 21.833 4.97407C21.8404 6.1093 22.2873 7.19753 23.0799 8.01028C23.0931 8.02258 23.1062 8.0375 23.1194 8.04979L23.1598 8.08929L26.2237 11.1541L29.2877 8.09193L29.328 8.05242L29.3675 8.01292C29.8279 7.54134 30.176 6.97202 30.3859 6.3473C30.5958 5.72259 30.6622 5.05857 30.5799 4.40468ZM26.2237 7.7513C25.7154 7.75126 25.2181 7.60354 24.7922 7.32611C24.3663 7.04868 24.0301 6.65349 23.8246 6.18858C23.6192 5.72367 23.5532 5.20907 23.6347 4.70736C23.7162 4.20564 23.9417 3.73842 24.2839 3.36249C24.626 2.98656 25.0699 2.71812 25.5618 2.58982C26.0536 2.46151 26.5721 2.47887 27.0543 2.63976C27.5365 2.80066 27.9615 3.09818 28.2777 3.49613C28.5939 3.89409 28.7877 4.37535 28.8355 4.88139C28.8434 4.96216 28.8469 5.04468 28.8469 5.12809C28.8471 5.47264 28.7793 5.81385 28.6475 6.13222C28.5157 6.45058 28.3225 6.73986 28.0789 6.98355C27.8353 7.22723 27.5461 7.42053 27.2278 7.55241C26.9095 7.6843 26.5683 7.75218 26.2237 7.75218V7.7513Z" fill="#FFB52F"/>
</g>
<path d="M8.19795 19.7743V21.2113H5.36965V29.176H3.62065V21.2113H0.779336V19.7743H8.19795ZM10.9252 22.5051V29.176H9.31922V22.5051H10.9252ZM11.1657 20.5611C11.1657 20.6998 11.1376 20.8298 11.0812 20.9512C11.0249 21.0725 10.949 21.1787 10.8537 21.2698C10.7626 21.3608 10.6543 21.4345 10.5286 21.4908C10.4029 21.5428 10.2685 21.5689 10.1254 21.5689C9.98674 21.5689 9.85454 21.5428 9.72883 21.4908C9.60747 21.4345 9.50127 21.3608 9.41024 21.2698C9.31922 21.1787 9.24553 21.0725 9.18918 20.9512C9.13717 20.8298 9.11116 20.6998 9.11116 20.5611C9.11116 20.418 9.13717 20.2837 9.18918 20.158C9.24553 20.0322 9.31922 19.9239 9.41024 19.8329C9.50127 19.7418 9.60747 19.6703 9.72883 19.6183C9.85454 19.5619 9.98674 19.5338 10.1254 19.5338C10.2685 19.5338 10.4029 19.5619 10.5286 19.6183C10.6543 19.6703 10.7626 19.7418 10.8537 19.8329C10.949 19.9239 11.0249 20.0322 11.0812 20.158C11.1376 20.2837 11.1657 20.418 11.1657 20.5611ZM17.4333 23.916C17.3856 23.9767 17.338 24.0244 17.2903 24.0591C17.2469 24.0937 17.1819 24.1111 17.0952 24.1111C17.0129 24.1111 16.9327 24.0872 16.8547 24.0396C16.7766 23.9875 16.6834 23.9312 16.5751 23.8705C16.4667 23.8055 16.3367 23.7491 16.185 23.7015C16.0376 23.6494 15.8534 23.6234 15.6323 23.6234C15.3506 23.6234 15.1035 23.6755 14.8911 23.7795C14.6787 23.8792 14.501 24.0244 14.358 24.2151C14.2192 24.4058 14.1152 24.6377 14.0459 24.9108C13.9765 25.1796 13.9418 25.4851 13.9418 25.8276C13.9418 26.183 13.9787 26.4994 14.0524 26.7768C14.1304 27.0543 14.2409 27.2883 14.384 27.479C14.527 27.6654 14.7004 27.8085 14.9041 27.9082C15.1078 28.0035 15.3376 28.0512 15.5933 28.0512C15.849 28.0512 16.0549 28.0209 16.211 27.9602C16.3714 27.8952 16.5057 27.8258 16.6141 27.7521C16.7225 27.6741 16.8157 27.6047 16.8937 27.5441C16.976 27.479 17.0671 27.4465 17.1668 27.4465C17.2968 27.4465 17.3943 27.4964 17.4593 27.5961L17.921 28.1812C17.7433 28.3893 17.5504 28.5649 17.3423 28.7079C17.1342 28.8466 16.9175 28.9593 16.6921 29.046C16.4711 29.1283 16.2413 29.1869 16.0029 29.2215C15.7645 29.2562 15.5283 29.2736 15.2942 29.2736C14.8824 29.2736 14.4945 29.1977 14.1304 29.046C13.7663 28.8899 13.4477 28.6645 13.1746 28.3698C12.9059 28.075 12.6913 27.7153 12.5309 27.2905C12.3749 26.8614 12.2969 26.3737 12.2969 25.8276C12.2969 25.3378 12.3662 24.8848 12.5049 24.4687C12.648 24.0482 12.856 23.6863 13.1291 23.3829C13.4022 23.0751 13.7403 22.8345 14.1434 22.6612C14.5465 22.4878 15.0103 22.4011 15.5348 22.4011C16.0333 22.4011 16.4689 22.4813 16.8417 22.6417C17.2188 22.802 17.5569 23.0318 17.856 23.3309L17.4333 23.916ZM20.568 19.5143V25.0473H20.8671C20.9755 25.0473 21.06 25.0322 21.1207 25.0018C21.1814 24.9715 21.2464 24.9151 21.3157 24.8328L22.9737 22.7847C23.0474 22.698 23.1254 22.6308 23.2078 22.5831C23.2901 22.5311 23.3985 22.5051 23.5329 22.5051H25.0023L22.9282 24.9823C22.8545 25.0734 22.7787 25.1579 22.7006 25.2359C22.6226 25.3096 22.5381 25.3746 22.4471 25.431C22.5381 25.496 22.6183 25.5718 22.6876 25.6585C22.757 25.7452 22.8263 25.8384 22.8957 25.9381L25.1193 29.176H23.6694C23.5437 29.176 23.4375 29.1544 23.3508 29.111C23.2641 29.0677 23.1861 28.994 23.1168 28.8899L21.4198 26.3607C21.3548 26.261 21.2897 26.196 21.2247 26.1657C21.1597 26.1353 21.0622 26.1202 20.9321 26.1202H20.568V29.176H18.9621V19.5143H20.568ZM28.4806 22.4011C28.901 22.4011 29.2868 22.4683 29.6379 22.6026C29.9934 22.737 30.2989 22.9342 30.5547 23.1943C30.8104 23.4501 31.0098 23.7665 31.1529 24.1436C31.2959 24.5164 31.3674 24.9433 31.3674 25.4245C31.3674 25.5458 31.3609 25.6477 31.3479 25.73C31.3392 25.8081 31.3197 25.8709 31.2894 25.9186C31.2634 25.9619 31.2265 25.9945 31.1789 26.0161C31.1312 26.0335 31.0705 26.0421 30.9968 26.0421H26.8746C26.9223 26.727 27.1065 27.2298 27.4273 27.5506C27.748 27.8713 28.1728 28.0317 28.7017 28.0317C28.9617 28.0317 29.185 28.0014 29.3713 27.9407C29.5621 27.88 29.7268 27.8128 29.8655 27.7391C30.0085 27.6654 30.1321 27.5982 30.2361 27.5376C30.3445 27.4769 30.4485 27.4465 30.5482 27.4465C30.6132 27.4465 30.6696 27.4595 30.7172 27.4855C30.7649 27.5116 30.8061 27.5484 30.8408 27.5961L31.3089 28.1812C31.1312 28.3893 30.9318 28.5649 30.7107 28.7079C30.4897 28.8466 30.2578 28.9593 30.015 29.046C29.7766 29.1283 29.5317 29.1869 29.2803 29.2215C29.0333 29.2562 28.7927 29.2736 28.5586 29.2736C28.0948 29.2736 27.6635 29.1977 27.2647 29.046C26.866 28.8899 26.5192 28.6624 26.2244 28.3633C25.9297 28.0599 25.6978 27.6871 25.5287 27.245C25.3597 26.7985 25.2752 26.2827 25.2752 25.6975C25.2752 25.2424 25.3489 24.8154 25.4962 24.4167C25.6436 24.0136 25.8538 23.6646 26.1269 23.3699C26.4043 23.0708 26.7403 22.8345 27.1347 22.6612C27.5335 22.4878 27.9821 22.4011 28.4806 22.4011ZM28.5131 23.5519C28.045 23.5519 27.6787 23.6841 27.4143 23.9485C27.1499 24.2129 26.9808 24.5879 26.9071 25.0734H29.924C29.924 24.8653 29.8958 24.6702 29.8395 24.4882C29.7831 24.3018 29.6964 24.1393 29.5794 24.0005C29.4624 23.8618 29.315 23.7535 29.1373 23.6755C28.9596 23.5931 28.7515 23.5519 28.5131 23.5519ZM34.8612 29.2801C34.2848 29.2801 33.8405 29.1175 33.5284 28.7924C33.2163 28.463 33.0602 28.01 33.0602 27.4335V23.708H32.384C32.2974 23.708 32.2215 23.6798 32.1565 23.6234C32.0958 23.5671 32.0655 23.4826 32.0655 23.3699V22.7327L33.1383 22.5571L33.4764 20.7366C33.4937 20.6499 33.5327 20.5827 33.5934 20.5351C33.6584 20.4874 33.7386 20.4635 33.834 20.4635H34.6662V22.5636H36.4217V23.708H34.6662V27.323C34.6662 27.5311 34.7182 27.6936 34.8222 27.8106C34.9263 27.9277 35.065 27.9862 35.2384 27.9862C35.3381 27.9862 35.4204 27.9753 35.4854 27.9537C35.5548 27.9277 35.6133 27.9017 35.661 27.8757C35.713 27.8496 35.7585 27.8258 35.7975 27.8041C35.8365 27.7781 35.8755 27.7651 35.9145 27.7651C35.9622 27.7651 36.0012 27.7781 36.0316 27.8041C36.0619 27.8258 36.0944 27.8605 36.1291 27.9082L36.6102 28.6884C36.3762 28.8834 36.1074 29.0308 35.804 29.1305C35.5006 29.2302 35.1863 29.2801 34.8612 29.2801ZM48.9518 29.176H47.2483C47.0576 29.176 46.8994 29.1327 46.7737 29.046C46.6523 28.955 46.5678 28.8401 46.5201 28.7014L45.9609 27.0499H42.3589L41.7997 28.7014C41.7564 28.8228 41.6719 28.9333 41.5462 29.033C41.4205 29.1283 41.2666 29.176 41.0845 29.176H39.368L43.0351 19.7028H45.2847L48.9518 29.176ZM42.866 25.5545H45.4538L44.5825 22.9603C44.5262 22.7955 44.459 22.6026 44.381 22.3816C44.3073 22.1562 44.2336 21.9135 44.1599 21.6534C44.0906 21.9178 44.019 22.1627 43.9454 22.3881C43.8717 22.6135 43.8023 22.8085 43.7373 22.9733L42.866 25.5545ZM52.0896 29.2801C51.7689 29.2801 51.485 29.2345 51.2379 29.1435C50.9952 29.0482 50.7893 28.916 50.6202 28.7469C50.4555 28.5735 50.3298 28.3655 50.2431 28.1227C50.1564 27.88 50.1131 27.6091 50.1131 27.31V23.825H49.5409C49.4369 23.825 49.348 23.7925 49.2743 23.7275C49.2006 23.6581 49.1638 23.5584 49.1638 23.4284V22.6417L50.2366 22.4336L50.6332 20.7886C50.6852 20.5806 50.8326 20.4765 51.0754 20.4765H52.1287V22.4466H53.7671V23.825H52.1287V27.1735C52.1287 27.3295 52.1655 27.4595 52.2392 27.5636C52.3172 27.6633 52.4277 27.7131 52.5708 27.7131C52.6445 27.7131 52.7051 27.7066 52.7528 27.6936C52.8048 27.6763 52.8482 27.6589 52.8829 27.6416C52.9219 27.6199 52.9566 27.6026 52.9869 27.5896C53.0216 27.5722 53.0606 27.5636 53.1039 27.5636C53.1646 27.5636 53.2123 27.5787 53.247 27.6091C53.286 27.6351 53.325 27.6784 53.364 27.7391L53.9752 28.6949C53.7151 28.8899 53.4225 29.0373 53.0974 29.137C52.7723 29.2324 52.4364 29.2801 52.0896 29.2801Z" fill="white"/>
<defs>
<clipPath id="clip0_170_5981">
<rect width="19.1263" height="15.7086" fill="white" transform="translate(17.7308 0.556763)"/>
</clipPath>
</defs>
</svg>
