<svg width="54" height="45" viewBox="0 0 54 45" fill="none" xmlns="http://www.w3.org/2000/svg">
<path d="M53.7634 32.1927L45.3342 22.4223C45.1826 22.2467 45.0974 22.0236 45.0933 21.7917C45.0892 21.5597 45.1666 21.3337 45.3119 21.153L53.7411 10.6561C53.86 10.5079 53.9338 10.3286 53.9538 10.1395C53.9737 9.95052 53.9388 9.75976 53.8534 9.58997C53.768 9.42018 53.6356 9.27852 53.4719 9.18184C53.3083 9.08516 53.1203 9.03756 52.9304 9.04467L39.5875 9.54051C36.8432 9.64071 34.1346 10.1962 31.5723 11.1842C30.211 11.7072 28.8986 12.3493 27.6502 13.1031C24.9785 14.7412 22.0236 15.8647 18.9384 16.4153L17.9468 16.6037L13.3454 17.4119L11.7885 17.6846C11.8109 17.7656 11.825 17.8487 11.8306 17.9325L11.9224 19.5415C11.9314 19.7041 11.9083 19.867 11.8544 20.0207C11.8004 20.1744 11.7167 20.3159 11.6081 20.4373C11.4994 20.5586 11.3679 20.6574 11.221 20.7278C11.0741 20.7983 10.9148 20.8392 10.7522 20.848H10.6828C10.3657 20.8485 10.0605 20.7275 9.82992 20.5098C9.59934 20.2922 9.46094 19.9944 9.44318 19.6779L9.35641 18.0986L0.820614 19.5861C0.590771 19.6264 0.382479 19.7464 0.232385 19.925C0.082291 20.1037 2.22088e-06 20.3296 0 20.5629V24.7552C0.00407966 24.9908 0.0918982 25.2172 0.247713 25.3939C0.403528 25.5706 0.617167 25.6861 0.850363 25.7196C2.16785 25.9217 3.36943 26.5888 4.23755 27.6002C5.10568 28.6116 5.58295 29.9004 5.58295 31.2333C5.58295 32.5662 5.10568 33.855 4.23755 34.8664C3.36943 35.8778 2.16785 36.5449 0.850363 36.747C0.617167 36.7805 0.403528 36.896 0.247713 37.0727C0.0918982 37.2494 0.00407966 37.4758 0 37.7114V43.3738C0.00155743 43.5172 0.0341873 43.6585 0.0956398 43.7881C0.157092 43.9176 0.245913 44.0323 0.355965 44.1242C0.466018 44.2161 0.59469 44.2831 0.733115 44.3204C0.87154 44.3578 1.01642 44.3647 1.15778 44.3407L10.7274 42.6598L10.5935 40.2996C10.5844 40.1369 10.6074 39.9739 10.6613 39.82C10.7152 39.6661 10.7988 39.5243 10.9075 39.4028C11.0162 39.2812 11.1477 39.1823 11.2946 39.1116C11.4415 39.0408 11.6009 38.9997 11.7637 38.9906C11.9265 38.9815 12.0895 39.0046 12.2433 39.0584C12.3972 39.1123 12.539 39.1959 12.6605 39.3046C12.7821 39.4133 12.8811 39.5448 12.9518 39.6917C13.0225 39.8386 13.0636 39.998 13.0727 40.1608L13.1867 42.2284L18.8888 41.2368C21.9741 40.6862 24.9289 39.5628 27.6007 37.9246C31.2253 35.7168 35.3561 34.4764 39.5974 34.3223L53.0469 33.8265C53.2329 33.8193 53.413 33.7598 53.5668 33.655C53.7206 33.5502 53.8418 33.4043 53.9165 33.2339C53.9913 33.0634 54.0165 32.8754 53.9894 32.6913C53.9624 32.5072 53.884 32.3344 53.7634 32.1927ZM9.60433 22.6429C9.59522 22.4802 9.61825 22.3172 9.67212 22.1633C9.726 22.0094 9.80965 21.8676 9.91831 21.7461C10.027 21.6245 10.1585 21.5256 10.3054 21.4549C10.4523 21.3841 10.6117 21.3431 10.7745 21.3339C10.9373 21.3248 11.1003 21.3479 11.2542 21.4017C11.408 21.4556 11.5498 21.5393 11.6714 21.6479C11.7929 21.7566 11.8919 21.8881 11.9626 22.035C12.0333 22.1819 12.0744 22.3413 12.0835 22.5041L12.2496 25.4469C12.259 25.6095 12.2362 25.7724 12.1826 25.9263C12.129 26.0801 12.0456 26.2219 11.9371 26.3434C11.8287 26.465 11.6973 26.564 11.5506 26.6348C11.4038 26.7056 11.2446 26.7467 11.0819 26.7559H11.01C10.6929 26.7564 10.3877 26.6354 10.1572 26.4177C9.92658 26.2001 9.78819 25.9023 9.77043 25.5857L9.60433 22.6429ZM9.93407 28.531C9.91566 28.2022 10.0286 27.8796 10.248 27.6341C10.4675 27.3886 10.7755 27.2404 11.1042 27.222C11.433 27.2036 11.7556 27.3165 12.0011 27.536C12.2466 27.7554 12.3948 28.0634 12.4132 28.3922L12.5793 31.3374C12.5976 31.6655 12.4849 31.9874 12.2659 32.2324C12.047 32.4773 11.7397 32.6254 11.4116 32.6439H11.3398C11.0227 32.6444 10.7175 32.5234 10.4869 32.3057C10.2563 32.0881 10.1179 31.7903 10.1002 31.4738L9.93407 28.531ZM11.7364 38.532H11.6645C11.3474 38.5325 11.0422 38.4114 10.8117 38.1938C10.5811 37.9761 10.4427 37.6784 10.4249 37.3618L10.2638 34.424C10.2454 34.0952 10.3583 33.7726 10.5778 33.5271C10.7972 33.2816 11.1052 33.1334 11.434 33.115C11.7627 33.0966 12.0853 33.2095 12.3308 33.429C12.5763 33.6484 12.7246 33.9564 12.743 34.2852L12.9091 37.2304C12.926 37.5585 12.8119 37.8798 12.5921 38.1238C12.3722 38.3679 12.0644 38.5147 11.7364 38.532Z" fill="#137363"/>
<path d="M36.2808 10.8718C35.9583 8.23969 34.7969 5.78136 32.9686 3.86067L32.857 3.74664L32.6314 3.52102C32.5942 3.48383 32.5546 3.44914 32.5174 3.40947C30.2135 1.22053 27.157 0 23.9791 0C20.8012 0 17.7446 1.22053 15.4408 3.40947C15.4036 3.44914 15.364 3.48383 15.3268 3.52102L15.1012 3.74664L14.9896 3.86067C12.7813 6.18469 11.5593 9.2739 11.5801 12.4797C11.6009 15.6855 12.8629 18.7586 15.1012 21.0538C15.1384 21.0885 15.1755 21.1306 15.2127 21.1653L15.3268 21.2769L23.9791 29.9317L32.6314 21.2843L32.7455 21.1728L32.857 21.0612C34.1571 19.7295 35.1401 18.1218 35.7329 16.3576C36.3257 14.5935 36.5129 12.7183 36.2808 10.8718ZM23.9791 20.3224C22.5437 20.3223 21.1392 19.9051 19.9365 19.1217C18.7338 18.3383 17.7845 17.2223 17.2043 15.9094C16.624 14.5965 16.4376 13.1433 16.6678 11.7265C16.898 10.3097 17.5349 8.99029 18.501 7.9287C19.4672 6.86711 20.7209 6.10905 22.1098 5.74673C23.4987 5.3844 24.963 5.4334 26.3246 5.88777C27.6862 6.34213 28.8864 7.1823 29.7794 8.3061C30.6724 9.4299 31.2197 10.7889 31.3546 12.218C31.377 12.4461 31.3869 12.6791 31.3869 12.9146C31.3872 13.8876 31.1958 14.8512 30.8237 15.7502C30.4516 16.6493 29.906 17.4662 29.2181 18.1543C28.5302 18.8425 27.7134 19.3883 26.8145 19.7608C25.9156 20.1332 24.9521 20.3249 23.9791 20.3249V20.3224Z" fill="#FFB52F"/>
</svg>
