<svg width="24" height="24" viewBox="0 0 24 24" fill="none" xmlns="http://www.w3.org/2000/svg">
<path fill-rule="evenodd" clip-rule="evenodd" d="M12 5.6C8.46538 5.6 5.6 8.46538 5.6 12C5.6 15.5346 8.46538 18.4 12 18.4C15.5346 18.4 18.4 15.5346 18.4 12C18.4 8.46538 15.5346 5.6 12 5.6ZM4 12C4 7.58172 7.58172 4 12 4C16.4183 4 20 7.58172 20 12C20 16.4183 16.4183 20 12 20C7.58172 20 4 16.4183 4 12ZM12 8.3367C12.4418 8.3367 12.8 8.69487 12.8 9.1367V12.3234L14.953 13.0411C15.3721 13.1808 15.5987 13.6338 15.4589 14.053C15.3192 14.4721 14.8662 14.6987 14.447 14.5589L11.747 13.6589C11.4203 13.5501 11.2 13.2443 11.2 12.9V9.1367C11.2 8.69487 11.5582 8.3367 12 8.3367Z" fill="#525252"/>
</svg>
