<svg width="24" height="24" viewBox="0 0 24 24" fill="none" xmlns="http://www.w3.org/2000/svg">
<path d="M12.3803 6.51698C13.4552 6.69713 14.4317 7.20482 15.2112 7.98273C15.9907 8.76064 16.4953 9.73507 16.6799 10.8078M12.5445 3C14.4563 3.32345 16.1999 4.22828 17.5866 5.60805C18.9733 6.99191 19.8759 8.73197 20.2 10.6399M18.7066 18.2307C18.7066 18.2307 17.6686 19.2501 17.4143 19.549C16.9999 19.9912 16.5117 20.2 15.8717 20.2C15.8101 20.2 15.7445 20.2 15.683 20.1959C14.4645 20.1181 13.3321 19.6432 12.4829 19.2378C10.1608 18.116 8.12178 16.5234 6.42739 14.5049C5.02838 12.8221 4.09298 11.2663 3.47348 9.59586C3.09194 8.57639 2.95245 7.7821 3.01399 7.03285C3.05501 6.55382 3.23963 6.15668 3.58015 5.81685L4.97915 4.42071C5.18018 4.23237 5.39352 4.13001 5.60276 4.13001C5.86122 4.13001 6.07046 4.2856 6.20174 4.41661C6.20584 4.42071 6.20995 4.4248 6.21405 4.4289C6.46431 4.66227 6.70226 4.90383 6.95253 5.16177C7.07971 5.29279 7.21099 5.4238 7.34228 5.55891L8.4623 6.67665C8.89718 7.11064 8.89718 7.51188 8.4623 7.94587C8.34332 8.0646 8.22845 8.18334 8.10947 8.29797C7.76485 8.65008 8.03557 8.37991 7.67864 8.69927C7.67044 8.70745 7.66223 8.71155 7.65813 8.71974C7.3053 9.07184 7.37094 9.41576 7.44479 9.64913C7.44889 9.66142 7.45299 9.6737 7.4571 9.68598C7.74839 10.3902 8.15865 11.0535 8.78225 11.8437L8.78635 11.8478C9.91869 13.2398 11.1126 14.3248 12.4295 15.1559C12.5977 15.2624 12.77 15.3483 12.9341 15.4302C13.0818 15.5039 13.2213 15.5735 13.3403 15.6472C13.3567 15.6554 13.3731 15.6677 13.3895 15.6759C13.529 15.7455 13.6603 15.7782 13.7957 15.7782C14.1362 15.7782 14.3495 15.5653 14.4193 15.4957L15.2235 14.6932C15.363 14.554 15.5845 14.3861 15.843 14.3861C16.0973 14.3861 16.3066 14.5458 16.4337 14.685C16.4378 14.6891 16.4378 14.6891 16.4419 14.6932L18.7025 16.9492C19.1251 17.3668 18.7066 18.2307 18.7066 18.2307Z" stroke="#404040" stroke-width="2" stroke-linecap="round" stroke-linejoin="round"/>
</svg>
