<svg width="24" height="24" viewBox="0 0 24 24" fill="none" xmlns="http://www.w3.org/2000/svg">
<path fill-rule="evenodd" clip-rule="evenodd" d="M8.04762 4C8.48945 4 8.84762 4.35817 8.84762 4.8V5.23428H15.4V4.8C15.4 4.35817 15.7582 4 16.2 4C16.6418 4 17 4.35817 17 4.8V5.33672C18.3918 5.70137 19.4 6.99532 19.4 8.50284L19.4 16.7314C19.4 18.5152 17.9884 20 16.2 20H8.2C6.4116 20 5 18.5152 5 16.7314V8.50284C5 7.05092 5.93522 5.7971 7.24762 5.38082V4.8C7.24762 4.35817 7.60579 4 8.04762 4ZM8.2 6.83428C7.33744 6.83428 6.6 7.55993 6.6 8.50284V8.7314H17.8V8.50284C17.8 7.55993 17.0626 6.83428 16.2 6.83428H8.2ZM17.8 10.3314H6.6V16.7314C6.6 17.6744 7.33744 18.4 8.2 18.4H16.2C17.0626 18.4 17.8 17.6744 17.8 16.7314L17.8 10.3314ZM12.6 11.961C13.0418 11.961 13.4 12.3192 13.4 12.761V12.8229C13.4 13.2647 13.0418 13.6229 12.6 13.6229C12.1582 13.6229 11.8 13.2647 11.8 12.8229V12.761C11.8 12.3192 12.1582 11.961 12.6 11.961ZM15.8 11.961C16.2418 11.961 16.6 12.3192 16.6 12.761V12.8229C16.6 13.2647 16.2418 13.6229 15.8 13.6229C15.3582 13.6229 15 13.2647 15 12.8229V12.761C15 12.3192 15.3582 11.961 15.8 11.961ZM9 15.3143C9.44183 15.3143 9.8 15.6724 9.8 16.1143V16.1761C9.8 16.618 9.44183 16.9761 9 16.9761C8.55817 16.9761 8.2 16.618 8.2 16.1761V16.1143C8.2 15.6724 8.55817 15.3143 9 15.3143ZM12.6 15.3143C13.0418 15.3143 13.4 15.6724 13.4 16.1143V16.1761C13.4 16.618 13.0418 16.9761 12.6 16.9761C12.1582 16.9761 11.8 16.618 11.8 16.1761V16.1143C11.8 15.6724 12.1582 15.3143 12.6 15.3143Z" fill="#525252"/>
</svg>
