<svg width="24" height="24" viewBox="0 0 24 24" fill="none" xmlns="http://www.w3.org/2000/svg">
<path d="M15.3713 14.5737C15.8952 14.7483 16.4615 14.4652 16.6362 13.9412C16.8108 13.4173 16.5277 12.851 16.0037 12.6763L15.3713 14.5737ZM12.5 12.5625H11.5C11.5 12.9929 11.7754 13.3751 12.1838 13.5112L12.5 12.5625ZM13.5 8.11971C13.5 7.56742 13.0523 7.11971 12.5 7.11971C11.9477 7.11971 11.5 7.56742 11.5 8.11971H13.5ZM16.0037 12.6763L12.8162 11.6138L12.1838 13.5112L15.3713 14.5737L16.0037 12.6763ZM13.5 12.5625V8.11971H11.5V12.5625H13.5ZM20 11.5C20 15.6421 16.6421 19 12.5 19V21C17.7467 21 22 16.7467 22 11.5H20ZM12.5 19C8.35786 19 5 15.6421 5 11.5H3C3 16.7467 7.25329 21 12.5 21V19ZM5 11.5C5 7.35786 8.35786 4 12.5 4V2C7.25329 2 3 6.25329 3 11.5H5ZM12.5 4C16.6421 4 20 7.35786 20 11.5H22C22 6.25329 17.7467 2 12.5 2V4Z" fill="#17907C"/>
</svg>
