<svg width="38" height="38" viewBox="0 0 38 38" fill="none" xmlns="http://www.w3.org/2000/svg">
<path d="M33.25 15.0417V27.7083C33.25 28.5482 32.9164 29.3536 32.3225 29.9475C31.7286 30.5414 30.9232 30.875 30.0833 30.875H7.91667C7.07681 30.875 6.27136 30.5414 5.6775 29.9475C5.08363 29.3536 4.75 28.5482 4.75 27.7083V15.0417C4.75 14.2018 5.08363 13.3964 5.6775 12.8025C6.27136 12.2086 7.07681 11.875 7.91667 11.875H13.4583C13.6683 11.875 13.8697 11.7916 14.0181 11.6431C14.1666 11.4947 14.25 11.2933 14.25 11.0833V8.70833C14.25 8.28841 14.4168 7.88568 14.7137 7.58875C15.0107 7.29182 15.4134 7.125 15.8333 7.125H22.1667C22.5866 7.125 22.9893 7.29182 23.2863 7.58875C23.5832 7.88568 23.75 8.28841 23.75 8.70833V11.0833C23.75 11.2933 23.8334 11.4947 23.9819 11.6431C24.1303 11.7916 24.3317 11.875 24.5417 11.875H30.0833C30.9232 11.875 31.7286 12.2086 32.3225 12.8025C32.9164 13.3964 33.25 14.2018 33.25 15.0417Z" stroke="white" stroke-width="1.5" stroke-linecap="round" stroke-linejoin="round"/>
<path d="M19 26.125C21.6234 26.125 23.75 23.9984 23.75 21.375C23.75 18.7516 21.6234 16.625 19 16.625C16.3766 16.625 14.25 18.7516 14.25 21.375C14.25 23.9984 16.3766 26.125 19 26.125Z" stroke="white" stroke-width="1.5" stroke-linecap="round" stroke-linejoin="round"/>
</svg>
