<svg width="24" height="24" viewBox="0 0 24 24" fill="none" xmlns="http://www.w3.org/2000/svg">
<path fill-rule="evenodd" clip-rule="evenodd" d="M7.42013 3C7.89411 3 8.27835 3.38424 8.27835 3.85822V4.40687H15.8542V3.85822C15.8542 3.38424 16.2385 3 16.7125 3C17.1864 3 17.5707 3.38424 17.5707 3.85822V4.47773C19.1323 4.79994 20.3063 6.18275 20.3063 7.83977L20.3063 17.6971C20.3063 19.593 18.7693 21.13 16.8734 21.13H7.4329C5.53696 21.13 4 19.593 4 17.6971V7.83977C4 6.24478 5.08776 4.90384 6.5619 4.51833V3.85822C6.5619 3.38424 6.94614 3 7.42013 3ZM7.41155 6.12345C6.47342 6.13488 5.71645 6.89893 5.71645 7.83977V17.6971C5.71645 18.6451 6.48493 19.4135 7.4329 19.4135H16.8734C17.8213 19.4135 18.5898 18.6451 18.5898 17.6971L18.5898 7.83977C18.5898 6.8918 17.8213 6.12332 16.8734 6.12332H7.43749C7.43172 6.12343 7.42593 6.12349 7.42013 6.12349C7.41726 6.12349 7.4144 6.12348 7.41155 6.12345ZM7.12639 8.54779C7.12639 8.0738 7.51063 7.68956 7.98462 7.68956H16.2565C16.7305 7.68956 17.1147 8.0738 17.1147 8.54779C17.1147 9.02177 16.7305 9.40601 16.2565 9.40601H7.98462C7.51063 9.40601 7.12639 9.02177 7.12639 8.54779Z" fill="#404040"/>
</svg>
