<svg width="24" height="24" viewBox="0 0 24 24" fill="none" xmlns="http://www.w3.org/2000/svg">
<path d="M7.09303 23.7278C6.59776 23.461 6.49499 23.217 6.64852 22.6691C7.10294 21.0477 7.55921 19.4263 8.00682 17.8031C8.04706 17.6563 8.1003 17.6074 8.25445 17.6074C10.6627 17.6124 13.0712 17.6124 15.4799 17.6074C15.6303 17.6074 15.6867 17.652 15.7275 17.8006C16.177 19.4319 16.6364 21.0607 17.0896 22.6914C17.2363 23.2152 17.1267 23.4647 16.6389 23.7284L7.09303 23.7278Z" fill="#137363"/>
<path d="M0.00247643 18.306C0.117009 18.0695 0.235256 17.8311 0.491561 17.7191C0.615691 17.6587 0.75058 17.6235 0.888401 17.6157C2.75683 17.6095 4.62505 17.6082 6.49306 17.612C6.53145 17.612 6.56921 17.6181 6.62679 17.6231C6.44415 18.2744 6.26338 18.917 6.08322 19.5602C5.85168 20.3898 5.61581 21.2188 5.39293 22.0509C5.35393 22.1957 5.30254 22.249 5.14529 22.2484C3.67144 22.2422 2.19696 22.2422 0.721864 22.2484C0.350407 22.2484 0.146725 22.0403 0 21.737L0.00247643 18.306Z" fill="#137363"/>
<path d="M8.39056 1.39977H5.61331V16.211H4.22839V14.3834H2.37111V16.206H0.976288V0.804823C0.976288 0.26002 1.23569 0 1.78111 0H21.9394C22.5016 0 22.756 0.255065 22.756 0.818441V16.211H21.3748V14.3834H19.5175V16.206H18.1246V1.40287H15.3424C15.3424 1.83623 15.338 2.27517 15.3479 2.71163C15.3479 2.7624 15.4198 2.82121 15.4718 2.86083C15.8488 3.15614 16.0438 3.53689 16.0382 4.01916C16.0351 4.31261 16.0382 4.60606 16.0382 4.89951C16.0382 5.19296 15.8525 5.37374 15.5584 5.37559C14.9484 5.37931 14.3384 5.37931 13.7284 5.37559C13.4956 5.37559 13.282 5.23382 13.2752 5.02704C13.2541 4.58063 13.2622 4.13331 13.2994 3.68794C13.3334 3.33754 13.5538 3.06885 13.8349 2.85402C13.8977 2.80513 13.9388 2.73356 13.9494 2.65468C13.9599 2.24608 13.955 1.83685 13.955 1.4103H9.78105C9.78105 1.84366 9.77734 2.27703 9.786 2.71597C9.786 2.76178 9.84791 2.81564 9.89311 2.84969C10.0827 2.98448 10.2355 3.16476 10.3373 3.37397C10.4391 3.58318 10.4866 3.81462 10.4757 4.04702C10.4701 4.32499 10.4757 4.6042 10.4757 4.88094C10.472 5.19049 10.2968 5.37621 9.99154 5.37621C9.38937 5.37993 8.78699 5.37993 8.18441 5.37621C7.87486 5.37621 7.70027 5.1942 7.69718 4.88465C7.69408 4.57511 7.69718 4.28228 7.69718 3.9814C7.69718 3.51708 7.89962 3.15552 8.25436 2.86331C8.32961 2.79702 8.37658 2.7044 8.38561 2.60453C8.39861 2.2114 8.39056 1.81828 8.39056 1.39977ZM4.20982 1.40782H2.38411V3.23291H4.2092L4.20982 1.40782ZM21.3538 3.23477V1.40596H19.5287V3.23477H21.3538ZM2.37606 6.47263H4.20115V4.64754H2.37606V6.47263ZM19.525 4.6463V6.47387H21.3482V4.6463H19.525ZM2.37606 9.71421H4.2092V7.89345H2.3742L2.37606 9.71421ZM19.5306 7.88912V9.71483H21.3556V7.88912H19.5306ZM2.38163 12.9657H4.20982V11.1418H2.37668L2.38163 12.9657ZM19.5306 11.1357V12.9607H21.3569V11.1344L19.5306 11.1357Z" fill="#137363"/>
<path d="M7.01056 16.204V11.3677H16.7149V16.204H7.01056Z" fill="#137363"/>
<path d="M17.1012 17.6113H22.735C23.3541 17.6113 23.7311 17.9865 23.7317 18.6019C23.7317 19.5673 23.7317 20.5324 23.7317 21.4974C23.7317 21.9654 23.4519 22.2459 22.9851 22.2465C21.5259 22.2465 20.0661 22.2465 18.6069 22.2502C18.449 22.2502 18.3846 22.2112 18.3407 22.0502C17.9351 20.5793 17.5197 19.1145 17.1012 17.6113Z" fill="#137363"/>
</svg>
