<svg width="20" height="20" viewBox="0 0 20 20" fill="none" xmlns="http://www.w3.org/2000/svg">
<path d="M9.24874 3.16958H4.51C2.93971 3.16958 1.66675 4.4425 1.66675 6.01274V15.49C1.66675 17.0602 2.93971 18.3332 4.51 18.3332H13.9875C15.5578 18.3332 16.8307 17.0602 16.8307 15.49L16.8307 10.7514M6.40549 13.5945L9.85371 12.8997C10.0368 12.8628 10.2048 12.7727 10.3368 12.6406L18.056 4.91747C18.4261 4.54719 18.4259 3.94698 18.0554 3.577L16.4203 1.94371C16.05 1.57388 15.4501 1.57414 15.0801 1.94427L7.36016 9.66822C7.22842 9.80004 7.13846 9.96777 7.10154 10.1504L6.40549 13.5945Z" stroke="#262626" stroke-width="2" stroke-linecap="round" stroke-linejoin="round"/>
</svg>
