<svg width="98" height="98" viewBox="0 0 98 98" fill="none" xmlns="http://www.w3.org/2000/svg">
<g clip-path="url(#clip0_229_1522)">
<path d="M92.3871 97.4798H5.6215C5.4929 97.4005 5.35766 97.3325 5.21732 97.2765C2.09576 96.3258 0.301123 93.9134 0.298581 90.6343C0.298581 86.6052 0.298581 82.5762 0.298581 78.5497C0.298581 76.8847 0.822229 75.39 1.99408 74.2436C2.75668 73.5089 3.69976 72.9573 4.62758 72.4337C5.80198 71.7702 6.50356 70.8348 6.57728 69.4951C6.651 68.1555 6.06889 67.1031 4.93008 66.3863C4.61233 66.1855 4.24628 66.0584 3.91328 65.8779C1.59245 64.6349 0.326541 62.7131 0.308747 60.0618C0.280785 55.9387 0.290953 51.8156 0.308747 47.6925C0.292903 46.2057 0.796003 44.7599 1.7314 43.6042C2.6668 42.4484 3.97595 41.6549 5.43339 41.3605C6.84673 41.1063 8.33125 41.1596 9.78526 41.1724C10.1247 41.1917 10.4642 41.1351 10.7791 41.0067C11.0939 40.8783 11.3762 40.6813 11.6053 40.4301C24.3051 27.6964 37.015 14.9764 49.7351 2.26983C52.755 -0.747504 56.6645 -0.757672 59.6743 2.23424C62.3942 4.93891 65.0938 7.66647 67.8086 10.3686C69.9718 12.5166 70.4828 14.995 69.4736 17.8624C69.2313 18.5112 69.1586 19.2112 69.2626 19.8959C69.6998 22.1532 71.8046 23.1726 74.0924 22.3413C76.675 21.4059 79.067 21.7465 81.0549 23.6657C84.0671 26.5712 87.0006 29.5606 89.9518 32.5398C91.2381 33.8387 91.9524 35.4504 91.7643 37.2704C91.6295 38.5795 91.1466 39.8505 90.8186 41.1393C90.8186 41.1393 90.9864 41.152 91.1415 41.1546C92.5634 41.1632 93.945 41.6283 95.0827 42.4814C96.2204 43.3344 97.0541 44.5303 97.4609 45.8928C97.527 46.0936 97.6261 46.2843 97.7151 46.4775V61.3227C96.9881 63.463 95.8264 65.2119 93.6225 66.1118C92.2422 66.6761 91.4541 67.7513 91.4338 69.2689C91.416 70.8271 92.1964 71.9151 93.6148 72.5252C95.0427 73.0938 96.2226 74.1503 96.9448 75.5069C97.2473 76.084 97.4532 76.7042 97.7227 77.3067V92.1518C97.2143 93.5042 96.7288 94.9175 95.4959 95.7818C94.5299 96.4554 93.4267 96.9206 92.3871 97.4798ZM71.8402 46.8944H7.52798C6.25699 46.8944 6.02313 47.1282 6.02313 48.3814C6.02313 52.0597 6.03584 55.7379 6.00788 59.4162C6.00788 60.1788 6.22903 60.6084 6.95095 60.9566C10.4335 62.6445 12.3273 65.4686 12.3222 69.3452C12.3171 73.2217 10.436 75.9797 7.00179 77.6625C6.2392 78.0337 6.00025 78.4684 6.00788 79.2665C6.03838 82.8812 6.02059 86.4959 6.02059 90.1106C6.02059 91.5545 6.22394 91.7604 7.66017 91.7604H71.8402V46.8944ZM43.2835 16.8608C43.4183 17.0286 43.4716 17.115 43.5377 17.1735C51.3806 25.0214 59.2294 32.8635 67.0841 40.6995C67.4072 40.9749 67.8163 41.1286 68.2407 41.1342C71.5707 41.1673 74.8982 41.1571 78.2257 41.152C79.6187 41.152 81.1693 41.5028 82.3615 41.0046C83.5537 40.5064 84.3951 39.1515 85.3788 38.1703C85.4246 38.1245 85.4703 38.0813 85.5135 38.0355C86.2431 37.273 86.2532 36.9679 85.5135 36.2155C82.8292 33.521 80.1245 30.8468 77.4554 28.1345C76.947 27.6261 76.492 27.5702 75.8565 27.8346C74.3194 28.4637 72.6284 28.6151 71.0039 28.2692C65.1878 27.1076 62.0408 21.4745 64.0668 15.8923C64.26 15.3585 64.2803 14.9594 63.8456 14.5273C61.0546 11.7599 58.2736 8.98152 55.5029 6.19211C54.9665 5.65321 54.4861 5.68372 53.9522 6.21499C50.4036 9.75852 46.8677 13.2944 43.2835 16.8608ZM77.7376 91.7172C78.0477 91.7172 78.2663 91.7477 78.4824 91.7477C82.5089 91.7477 86.5346 91.7477 90.5594 91.7477C91.7287 91.7477 91.988 91.4782 91.988 90.2759C91.988 86.5976 91.9727 82.9194 92.0058 79.2436C92.0058 78.4378 91.7516 78.0159 90.989 77.6498C87.5624 75.9569 85.6813 73.1556 85.6787 69.3274C85.6762 65.4991 87.5446 62.6928 90.9712 60.9947C91.7083 60.6287 92.0058 60.2322 91.988 59.4136C91.9549 55.7379 91.9753 52.0597 91.9727 48.3814C91.9727 47.1308 91.7312 46.8944 90.4653 46.8944C86.5032 46.8944 82.5411 46.8944 78.579 46.8944C78.3045 46.8944 78.0299 46.9299 77.7198 46.9503L77.7376 91.7172ZM39.2418 21.228L19.3863 41.0834H59.0972L39.2418 21.228Z" fill="#17907C"/>
<path d="M20.3671 71.6505V65.9717H63.2529V71.6505H20.3671Z" fill="#17907C"/>
<path d="M20.362 83.1256V77.4468H63.2834V83.1256H20.362Z" fill="#17907C"/>
<path d="M20.362 60.1614V54.5513H63.2707V60.1614H20.362Z" fill="#17907C"/>
</g>
<defs>
<clipPath id="clip0_229_1522">
<rect width="97.4292" height="97.48" fill="white" transform="translate(0.2854)"/>
</clipPath>
</defs>
</svg>
