<svg width="29" height="28" viewBox="0 0 29 28" fill="none" xmlns="http://www.w3.org/2000/svg">
<path d="M3.05176e-05 23.7241C0.0883984 23.4271 0.153749 23.1159 0.267365 22.8263C0.541227 22.1229 1.02167 21.5189 1.64546 21.0938C2.26924 20.6687 3.00713 20.4425 3.76198 20.4448H27.6933C28.1901 20.4448 28.4842 20.7114 28.4679 21.1436C28.4619 21.3067 28.3955 21.4618 28.2816 21.5788C28.1677 21.6957 28.0144 21.7661 27.8515 21.7763C27.7594 21.7822 27.6659 21.7763 27.5738 21.7763H3.94763C2.72459 21.7763 1.76293 22.4446 1.44808 23.5095C0.987672 25.063 2.08521 26.5875 3.72113 26.6655C3.84143 26.6707 3.96173 26.6655 4.08277 26.6655C11.9483 26.6655 19.8142 26.6628 27.6807 26.6573C28.1612 26.6573 28.525 26.9893 28.4656 27.4348C28.4292 27.7118 28.2258 27.8536 28.0245 27.9999H3.28078C3.23072 27.978 3.1791 27.9599 3.12633 27.9457C1.7362 27.6724 0.77826 26.8705 0.24434 25.5694C0.133695 25.2991 0.0802299 25.0051 3.05176e-05 24.7221V23.7241Z" fill="#137363"/>
<path d="M24.0205 8.2405H23.1294C23.1294 8.07268 23.1153 7.88258 23.1294 7.69544C23.1495 7.48752 23.0797 7.38356 22.8747 7.31598C22.473 7.18306 22.0824 7.01895 21.6353 6.84592L22.8346 6.35433L14.3944 3.13893C14.2889 3.41591 14.1916 3.67062 14.0817 3.95577L21.6561 6.8437L19.7351 7.61079C17.9781 8.31427 16.2206 9.01576 14.4627 9.71528C14.3406 9.76895 14.2039 9.77943 14.0751 9.74499C10.0572 8.14595 6.042 6.54146 2.02955 4.93153C2.00073 4.9163 1.97295 4.89918 1.94638 4.8803C2.03104 4.83797 2.0949 4.79935 2.16321 4.77262C6.11774 3.19091 10.0733 1.61192 14.0298 0.0356562C14.1628 -0.0118854 14.3081 -0.0118854 14.4412 0.0356562C18.4056 1.61143 22.368 3.1924 26.3285 4.77856C26.3857 4.80158 26.4406 4.83054 26.5513 4.88327L22.8955 6.35285C23.2416 6.48577 23.5453 6.59419 23.8401 6.72414C23.9143 6.75681 24.0109 6.85038 24.0138 6.91944C24.028 7.36054 24.0205 7.80386 24.0205 8.2405Z" fill="#137363"/>
<path d="M27.7906 22.668V25.7653C27.7 25.7698 27.6198 25.7787 27.5396 25.7787H3.81094C3.00078 25.7787 2.31537 25.1891 2.23294 24.4287C2.18228 24.0389 2.28009 23.6443 2.50696 23.3234C2.73382 23.0024 3.07313 22.7785 3.45747 22.6962C3.56622 22.6745 3.67706 22.665 3.78792 22.668C11.7089 22.668 19.6285 22.668 27.547 22.668H27.7906Z" fill="#137363"/>
<path d="M7.11775 7.90625C7.99623 8.25898 8.82569 8.5924 9.65442 8.92434C11.0854 9.49613 12.5186 10.0642 13.9466 10.6442C14.0377 10.6847 14.1364 10.7057 14.2362 10.7057C14.336 10.7057 14.4346 10.6847 14.5258 10.6442C16.7016 9.76693 18.8798 8.89463 21.0606 8.02729C21.1437 7.99388 21.2299 7.96417 21.339 7.92407C21.345 8.0362 21.3524 8.12383 21.3524 8.2122C21.3524 9.44415 21.3598 10.6754 21.345 11.9073C21.3398 12.0771 21.2769 12.24 21.1667 12.3692C20.3157 13.2848 19.2271 13.8017 18.0531 14.1514C16.4105 14.6445 14.7285 14.7388 13.0265 14.614C11.5933 14.5093 10.2121 14.2116 8.92298 13.5536C8.30069 13.2351 7.72444 12.8526 7.26106 12.3224C7.18547 12.2441 7.13772 12.1431 7.12517 12.035C7.11552 10.6783 7.11775 9.31791 7.11775 7.90625Z" fill="#137363"/>
<path d="M9.00905 14.6624C7.70952 14.6624 6.33574 14.6587 4.96789 14.6624C4.03966 14.6624 3.32009 15.2468 3.15821 16.1097C2.95548 17.1909 3.73743 18.163 4.85576 18.2164C4.96641 18.2224 5.07854 18.2164 5.18918 18.2164H24.1437C24.6234 18.2164 24.916 18.4786 24.9086 18.8967C24.9074 19.0648 24.8419 19.2261 24.7255 19.3474C24.609 19.4686 24.4505 19.5407 24.2826 19.5486C24.218 19.5524 24.1526 19.5486 24.088 19.5486H4.96715C3.35128 19.5486 2.12081 18.5261 1.82081 16.9384C1.51486 15.3248 2.6629 13.6191 4.29362 13.3963C5.15874 13.2782 6.04836 13.3406 6.92684 13.3258C6.98026 13.3299 7.03158 13.3483 7.07536 13.3792C7.73626 13.8188 8.39419 14.2555 9.00905 14.6624Z" fill="#137363"/>
<path d="M21.4927 15.5526C21.3918 16.1645 21.2967 16.737 21.2002 17.317C21.1073 17.3222 21.0346 17.3303 20.9625 17.3303H4.94939C4.50384 17.3303 4.18676 17.1172 4.04938 16.7288C3.92239 16.3702 4.02784 15.9536 4.35235 15.7427C4.5301 15.629 4.73548 15.5658 4.94642 15.56C6.64249 15.5466 8.33856 15.5526 10.0346 15.5526H21.4965H21.4927Z" fill="#137363"/>
<path d="M22.2375 16.423C22.4771 14.9833 22.7135 13.5655 22.9467 12.1694H24.2039C24.4348 13.5499 24.6732 14.9764 24.9145 16.423H22.2375Z" fill="#137363"/>
<path d="M23.586 9.10335C23.8068 9.10501 24.0221 9.17222 24.2046 9.29647C24.3871 9.42072 24.5285 9.59639 24.611 9.80119C24.6934 10.006 24.7132 10.2307 24.6677 10.4467C24.6222 10.6627 24.5135 10.8604 24.3555 11.0145C24.1975 11.1687 23.9972 11.2724 23.7801 11.3125C23.563 11.3527 23.3389 11.3274 23.1362 11.2399C22.9335 11.1523 22.7614 11.0066 22.6417 10.8211C22.522 10.6356 22.4602 10.4187 22.464 10.1979C22.464 10.0519 22.4933 9.90731 22.5501 9.77273C22.6068 9.63815 22.6899 9.51629 22.7944 9.4143C22.899 9.31231 23.0229 9.23226 23.1588 9.17886C23.2948 9.12546 23.44 9.09979 23.586 9.10335Z" fill="#137363"/>
<path d="M21.8558 13.3646L21.6404 14.647H19.331C19.5916 14.5193 19.8189 14.4302 20.0231 14.304C20.4382 14.0478 20.8399 13.7634 21.2521 13.5072C21.4177 13.4047 21.6107 13.3475 21.7912 13.2695L21.8558 13.3646Z" fill="#137363"/>
</svg>
