<svg width="30" height="30" viewBox="0 0 30 30" fill="none" xmlns="http://www.w3.org/2000/svg">
<circle cx="15" cy="15" r="15" fill="#D9D9D9"/>
<path fill-rule="evenodd" clip-rule="evenodd" d="M19.0416 7.21979C19.6673 6.59377 20.6819 6.59335 21.3082 7.21884L22.7799 8.68881C23.4063 9.31457 23.4068 10.3298 22.7808 10.9561L15.8336 17.9069C15.6103 18.1303 15.326 18.2827 15.0164 18.3451L11.913 18.9704C11.6667 19.02 11.412 18.9431 11.2344 18.7654C11.0568 18.5877 10.98 18.3329 11.0297 18.0866L11.6562 14.987C11.7186 14.678 11.8708 14.3943 12.0936 14.1714L19.0416 7.21979ZM20.2481 8.28012C20.2079 8.23994 20.1427 8.23996 20.1025 8.28018L13.1545 15.2317C13.1402 15.2461 13.1305 15.2643 13.1264 15.2841L12.7237 17.2769L14.7201 16.8747C14.74 16.8707 14.7583 16.8609 14.7726 16.8465L21.7199 9.89568C21.7601 9.85546 21.76 9.79027 21.7198 9.75009L20.2481 8.28012ZM10.0589 9.60277C9.05986 9.60277 8.25 10.4126 8.25 11.4116V19.9412C8.25 20.9401 9.05986 21.75 10.0589 21.75H18.5887C19.5877 21.75 20.3976 20.9401 20.3976 19.9412L20.3976 15.6764C20.3976 15.2622 20.7334 14.9264 21.1476 14.9264C21.5618 14.9264 21.8976 15.2622 21.8976 15.6764L21.8976 19.9412C21.8976 21.7686 20.4161 23.25 18.5887 23.25H10.0589C8.23148 23.25 6.75 21.7686 6.75 19.9412V11.4116C6.75 9.58416 8.23148 8.10277 10.0589 8.10277H14.3238C14.738 8.10277 15.0738 8.43855 15.0738 8.85277C15.0738 9.26698 14.738 9.60277 14.3238 9.60277H10.0589Z" fill="black"/>
</svg>
