<svg width="24" height="24" viewBox="0 0 24 24" fill="none" xmlns="http://www.w3.org/2000/svg">
<path d="M11.9626 3.29429C12.1562 2.9019 12.7157 2.9019 12.9094 3.29429L15.4163 8.3738C15.4932 8.52961 15.6418 8.63761 15.8138 8.6626L21.4194 9.47714C21.8524 9.54006 22.0253 10.0722 21.7119 10.3776L17.6557 14.3315C17.5313 14.4528 17.4745 14.6275 17.5039 14.7988L18.4614 20.3817C18.5354 20.813 18.0827 21.1419 17.6954 20.9382L12.6816 18.3023C12.5278 18.2215 12.3441 18.2215 12.1903 18.3023L7.17653 20.9382C6.78922 21.1419 6.33655 20.813 6.41052 20.3817L7.36807 14.7988C7.39744 14.6275 7.34066 14.4528 7.21623 14.3315L3.16001 10.3776C2.84667 10.0722 3.01957 9.54006 3.4526 9.47714L9.05816 8.6626C9.23012 8.63761 9.37877 8.52961 9.45567 8.3738L11.9626 3.29429Z" fill="#FBBC05"/>
</svg>
