<svg width="20" height="20" viewBox="0 0 20 20" fill="none" xmlns="http://www.w3.org/2000/svg">
<g clip-path="url(#clip0_173_7746)">
<path d="M10 20C15.5228 20 20 15.5228 20 10C20 4.47715 15.5228 0 10 0C4.47715 0 0 4.47715 0 10C0 15.5228 4.47715 20 10 20Z" fill="#6DA544"/>
<path d="M5.6521 11.9565C5.6521 12.6769 6.23608 13.2609 6.95644 13.2609H10.8695C10.8695 13.8612 11.3561 14.3478 11.9564 14.3478H13.2608C13.8611 14.3478 14.3477 13.8612 14.3477 13.2609V11.9565H5.6521Z" fill="#F0F0F0"/>
<path d="M14.4565 5.65222V8.6957C14.4565 9.17519 14.0664 9.56527 13.5869 9.56527V10.8696C14.7856 10.8696 15.7608 9.89437 15.7608 8.6957V5.65222H14.4565Z" fill="#F0F0F0"/>
<path d="M5.10883 8.69582C5.10883 9.17531 4.71875 9.56539 4.23926 9.56539V10.8697C5.43797 10.8697 6.41316 9.89449 6.41316 8.69582V5.65234H5.10883V8.69582Z" fill="#F0F0F0"/>
<path d="M12.5 5.65222H13.8043V8.6957H12.5V5.65222Z" fill="#F0F0F0"/>
<path d="M10.5434 7.39124C10.5434 7.51112 10.4459 7.60862 10.326 7.60862C10.2062 7.60862 10.1087 7.51108 10.1087 7.39124V5.6521H8.80433V7.39124C8.80433 7.51112 8.70679 7.60862 8.58694 7.60862C8.4671 7.60862 8.36956 7.51108 8.36956 7.39124V5.6521H7.06519V7.39124C7.06519 8.23034 7.74784 8.913 8.58694 8.913C8.91011 8.913 9.20979 8.81144 9.45651 8.63894C9.70319 8.8114 10.0029 8.913 10.3261 8.913C10.3912 8.913 10.4551 8.90843 10.5181 8.90042C10.4257 9.28124 10.0827 9.56515 9.6739 9.56515V10.8695C10.8726 10.8695 11.8478 9.89425 11.8478 8.69558V7.39124V5.6521H10.5435V7.39124H10.5434Z" fill="#F0F0F0"/>
<path d="M7.06519 9.56519H9.02171V10.8695H7.06519V9.56519Z" fill="#F0F0F0"/>
</g>
<defs>
<clipPath id="clip0_173_7746">
<rect width="20" height="20" fill="white"/>
</clipPath>
</defs>
</svg>
