<svg width="36" height="36" viewBox="0 0 36 36" fill="none" xmlns="http://www.w3.org/2000/svg">
<path d="M33.84 18.375C33.84 17.205 33.735 16.08 33.54 15H18V21.3825H26.88C26.4975 23.445 25.335 25.1925 23.5875 26.3625V30.5025H28.92C32.04 27.63 33.84 23.4 33.84 18.375Z" fill="#4285F4"/>
<path d="M17.9999 34.5C22.4549 34.5 26.1899 33.0225 28.9199 30.5025L23.5874 26.3625C22.1099 27.3525 20.2199 27.9375 17.9999 27.9375C13.7024 27.9375 10.0649 25.035 8.76738 21.135H3.25488V25.41C5.96988 30.8025 11.5499 34.5 17.9999 34.5Z" fill="#34A853"/>
<path d="M8.7675 21.135C8.4375 20.145 8.25 19.0875 8.25 18C8.25 16.9125 8.4375 15.855 8.7675 14.865V10.59H3.255C2.1 12.8893 1.49898 15.4269 1.5 18C1.5 20.6625 2.1375 23.1825 3.255 25.41L8.7675 21.135Z" fill="#FBBC05"/>
<path d="M17.9999 8.0625C20.4224 8.0625 22.5974 8.895 24.3074 10.53L29.0399 5.7975C26.1824 3.135 22.4474 1.5 17.9999 1.5C11.5499 1.5 5.96988 5.1975 3.25488 10.59L8.76738 14.865C10.0649 10.965 13.7024 8.0625 17.9999 8.0625Z" fill="#EA4335"/>
</svg>
