<svg width="23" height="20" viewBox="0 0 23 20" fill="none" xmlns="http://www.w3.org/2000/svg">
<path d="M21.4216 0H1.57843C1.15981 0 0.758325 0.171511 0.462312 0.476803C0.166299 0.782095 0 1.19616 0 1.62791V18.3721C0 18.8038 0.166299 19.2179 0.462312 19.5232C0.758325 19.8285 1.15981 20 1.57843 20H21.4216C21.8402 20 22.2417 19.8285 22.5377 19.5232C22.8337 19.2179 23 18.8038 23 18.3721V1.62791C23 1.19616 22.8337 0.782095 22.5377 0.476803C22.2417 0.171511 21.8402 0 21.4216 0ZM1.57843 1.39535H21.4216C21.4814 1.39535 21.5387 1.41985 21.581 1.46346C21.6233 1.50708 21.6471 1.56623 21.6471 1.62791V14.136L18.3245 10.7093C18.1779 10.5581 18.0039 10.4382 17.8124 10.3564C17.6208 10.2746 17.4156 10.2324 17.2083 10.2324C17.001 10.2324 16.7957 10.2746 16.6042 10.3564C16.4127 10.4382 16.2387 10.5581 16.0921 10.7093L13.6771 13.2L8.55735 7.9186C8.41078 7.76742 8.23677 7.6475 8.04525 7.56568C7.85374 7.48386 7.64847 7.44174 7.44118 7.44174C7.23388 7.44174 7.02861 7.48386 6.8371 7.56568C6.64559 7.6475 6.47157 7.76742 6.325 7.9186L1.35294 13.0465V1.62791C1.35294 1.56623 1.3767 1.50708 1.41899 1.46346C1.46127 1.41985 1.51863 1.39535 1.57843 1.39535ZM1.35294 18.3721V15.0198L7.28108 8.90581C7.30204 8.88402 7.32698 8.86672 7.35446 8.85491C7.38194 8.8431 7.41141 8.83702 7.44118 8.83702C7.47094 8.83702 7.50042 8.8431 7.52789 8.85491C7.55537 8.86672 7.58031 8.88402 7.60127 8.90581L17.0053 18.6047H1.57843C1.51863 18.6047 1.46127 18.5802 1.41899 18.5365C1.3767 18.4929 1.35294 18.4338 1.35294 18.3721ZM21.4216 18.6047H18.9186L14.6343 14.186L17.0482 11.6953C17.0691 11.6737 17.094 11.6566 17.1214 11.6449C17.1487 11.6332 17.1781 11.6271 17.2077 11.6271C17.2374 11.6271 17.2667 11.6332 17.2941 11.6449C17.3214 11.6566 17.3463 11.6737 17.3673 11.6953L21.6516 16.114V18.3721C21.6516 18.403 21.6456 18.4337 21.634 18.4622C21.6224 18.4907 21.6054 18.5165 21.5839 18.5382C21.5625 18.5599 21.5371 18.5769 21.5092 18.5883C21.4814 18.5997 21.4516 18.6053 21.4216 18.6047ZM13.5294 6.74419C13.5294 6.51421 13.5955 6.28939 13.7194 6.09817C13.8433 5.90695 14.0194 5.75792 14.2254 5.66991C14.4314 5.5819 14.6581 5.55887 14.8768 5.60374C15.0955 5.6486 15.2964 5.75935 15.4541 5.92197C15.6118 6.08459 15.7191 6.29178 15.7626 6.51734C15.8062 6.7429 15.7838 6.9767 15.6985 7.18917C15.6132 7.40164 15.4686 7.58324 15.2832 7.71101C15.0978 7.83878 14.8799 7.90698 14.6569 7.90698C14.3578 7.90698 14.0711 7.78447 13.8596 7.5664C13.6482 7.34834 13.5294 7.05258 13.5294 6.74419Z" fill="white"/>
</svg>
