<svg width="26" height="24" viewBox="0 0 26 24" fill="none" xmlns="http://www.w3.org/2000/svg">
<path d="M0 8.38964V6.97691C0.0198424 6.90592 0.0358773 6.83392 0.048038 6.76122C0.135186 5.87324 0.385808 5.00904 0.787254 4.21221C2.08235 1.69654 4.16469 0.298505 6.9637 0.0347805C9.10094 -0.161297 11.0254 0.47694 12.7068 1.81615C12.8725 1.9485 12.9676 1.94066 13.1293 1.81615C14.9146 0.411254 16.9362 -0.194631 19.1989 0.0710544C20.6607 0.242622 21.9822 0.784773 23.095 1.74653C25.4528 3.7828 26.2146 6.38181 25.644 9.39356C25.3862 10.7534 24.7773 11.9779 24.0215 13.1308C22.9928 14.6801 21.78 16.0989 20.4097 17.3563C18.2264 19.3886 15.998 21.3759 13.7793 23.367C13.2048 23.8837 12.6156 23.8641 12.0205 23.3396C10.0284 21.5837 8.03133 19.8327 6.05193 18.0621C4.56566 16.7318 3.15979 15.3171 2.00391 13.6837C1.25392 12.62 0.65686 11.4769 0.337254 10.2092C0.186274 9.61415 0.109803 8.99748 0 8.38964ZM14.4793 15.7582V12.6298H17.5901V9.5269H14.4705V6.41906H11.346V9.53474H8.2382V12.6475H11.3529V15.7582H14.4793Z" fill="#137363"/>
</svg>
