<svg width="28" height="24" viewBox="0 0 28 24" fill="none" xmlns="http://www.w3.org/2000/svg">
<path d="M26.6121 22.0986C26.6722 22.0992 26.7317 22.0875 26.787 22.0644C26.8423 22.0413 26.8923 22.0071 26.9337 21.9641C26.9751 21.9211 27.0072 21.8701 27.0279 21.8142C27.0486 21.7584 27.0575 21.699 27.054 21.6397C27.054 21.3142 26.8557 21.1587 26.4489 21.1587H25.7915V22.8627H26.0388V22.1199H26.3426L26.3495 22.1289L26.821 22.8627H27.0855L26.5782 22.1033L26.6121 22.0986ZM26.3262 21.9279H26.0395V21.3518H26.4029C26.5906 21.3518 26.8046 21.3822 26.8046 21.6256C26.8046 21.9054 26.588 21.9279 26.3247 21.9279" fill="#17907C"/>
<path d="M20.162 19.9632H16.6558V14.5265C16.6558 13.2301 16.6325 11.5612 14.8323 11.5612C13.0062 11.5612 12.7268 12.9737 12.7268 14.4322V19.9628H9.22069V8.78288H12.5866V10.3107H12.6337C12.9705 9.74047 13.4573 9.27135 14.0421 8.95333C14.6269 8.6353 15.2879 8.48029 15.9546 8.5048C19.5082 8.5048 20.1634 10.8192 20.1634 13.8301L20.162 19.9632ZM5.26464 7.25467C4.86222 7.25474 4.46882 7.13665 4.13418 6.91535C3.79955 6.69404 3.53872 6.37945 3.38466 6.01135C3.2306 5.64326 3.19022 5.2382 3.26866 4.84739C3.34709 4.45658 3.54081 4.09758 3.82531 3.81578C4.10981 3.53399 4.47232 3.34205 4.86698 3.26424C5.26165 3.18644 5.67075 3.22626 6.04256 3.37868C6.41437 3.53109 6.73218 3.78925 6.95581 4.12051C7.17944 4.45177 7.29884 4.84125 7.29892 5.2397C7.29896 5.50427 7.24638 5.76624 7.14417 6.01068C7.04196 6.25513 6.89215 6.47724 6.70325 6.66435C6.51435 6.85145 6.29006 6.99989 6.04323 7.10117C5.79639 7.20246 5.53183 7.25462 5.26464 7.25467ZM7.01769 19.9632H3.50793V8.78288H7.01769V19.9632ZM21.9099 0.00159626H1.74612C1.28846 -0.00351757 0.847447 0.171485 0.520033 0.488148C0.192618 0.804811 0.0055855 1.23723 0 1.69037V21.7384C0.00539433 22.1918 0.192318 22.6245 0.519721 22.9415C0.847124 23.2584 1.28823 23.4338 1.74612 23.429H21.9099C22.3687 23.4347 22.811 23.2598 23.1397 22.9428C23.4684 22.6259 23.6566 22.1927 23.6629 21.7384V1.68893C23.6564 1.23488 23.4681 0.801974 23.1394 0.485318C22.8107 0.168663 22.3685 -0.00583915 21.9099 0.000149187" fill="#17907C"/>
<path d="M26.3561 20.3999C25.9295 20.404 25.5219 20.5751 25.2224 20.8759C24.923 21.1768 24.756 21.5828 24.7581 22.0052C24.7601 22.4276 24.931 22.8319 25.2334 23.1299C25.5358 23.4279 25.945 23.5951 26.3716 23.5951C26.7982 23.5951 27.2074 23.4279 27.5098 23.1299C27.8122 22.8319 27.9831 22.4276 27.9851 22.0052C27.9872 21.5828 27.8202 21.1768 27.5208 20.8759C27.2213 20.5751 26.8137 20.404 26.3871 20.3999H26.3561ZM26.3561 23.4122C26.0763 23.4168 25.8014 23.3392 25.5662 23.1891C25.331 23.039 25.146 22.8233 25.0346 22.5691C24.9232 22.3149 24.8904 22.0337 24.9405 21.7611C24.9905 21.4885 25.121 21.2367 25.3156 21.0375C25.5101 20.8384 25.7599 20.7008 26.0334 20.6422C26.307 20.5836 26.5919 20.6067 26.8522 20.7085C27.1124 20.8102 27.3364 20.9861 27.4957 21.2139C27.655 21.4417 27.7425 21.7111 27.7472 21.9881C27.7472 21.9961 27.7472 22.0037 27.7472 22.0117C27.755 22.3751 27.6168 22.7267 27.3628 22.9892C27.1089 23.2517 26.76 23.4036 26.393 23.4115H26.3564" fill="#17907C"/>
</svg>
