<!DOCTYPE svg PUBLIC "-//W3C//DTD SVG 1.1//EN" "http://www.w3.org/Graphics/SVG/1.1/DTD/svg11.dtd">
<!-- Uploaded to: SVG Repo, www.svgrepo.com, Transformed by: SVG Repo Mixer Tools -->
<svg width="800px" height="800px" viewBox="0 -0.5 25 25" fill="none" xmlns="http://www.w3.org/2000/svg">
<g id="SVGRepo_bgCarrier" stroke-width="0"/>
<g id="SVGRepo_tracerCarrier" stroke-linecap="round" stroke-linejoin="round"/>
<g id="SVGRepo_iconCarrier"> <path fill-rule="evenodd" clip-rule="evenodd" d="M19.5 12.5C19.5 14.985 16.366 17 12.5 17C8.634 17 5.5 14.985 5.5 12.5C5.5 10.015 8.634 8 12.5 8C16.366 8 19.5 10.015 19.5 12.5Z" stroke="#292F2E" stroke-width="1.5" stroke-linecap="round" stroke-linejoin="round"/> <path fill-rule="evenodd" clip-rule="evenodd" d="M14.25 12.5C14.2716 13.1393 13.9429 13.7395 13.3925 14.0656C12.8422 14.3917 12.1578 14.3917 11.6075 14.0656C11.0571 13.7395 10.7284 13.1393 10.75 12.5C10.7284 11.8607 11.0571 11.2604 11.6075 10.9344C12.1578 10.6083 12.8422 10.6083 13.3925 10.9344C13.9429 11.2604 14.2716 11.8607 14.25 12.5V12.5Z" stroke="#292F2E" stroke-width="1.5" stroke-linecap="round" stroke-linejoin="round"/> </g>
</svg>