<svg width="24" height="24" viewBox="0 0 24 24" fill="none" xmlns="http://www.w3.org/2000/svg">
<path d="M8.87173 13.2813L8.2612 12.5608L8.26119 12.5608L8.87173 13.2813ZM8.91849 13.2366L8.24559 12.5738L8.24485 12.5746L8.91849 13.2366ZM6.95135 14.9085L6.34081 14.1879L6.3408 14.1879L6.95135 14.9085ZM6.84615 15.0192L7.62136 15.5587L7.62136 15.5587L6.84615 15.0192ZM17.0403 13.3493L16.3862 14.0306L17.0403 13.3493ZM15.4013 11.7759L14.7472 12.4572L14.7472 12.4572L15.4013 11.7759ZM14.7926 11.7716L14.1482 11.0811L14.1458 11.0834L14.7926 11.7716ZM11.7567 14.6248L12.4012 15.3153L12.4036 15.313L11.7567 14.6248ZM11.1387 14.6113L10.4625 15.2707L10.4639 15.2721L11.1387 14.6113ZM11.1308 14.6032L10.4539 15.2619L10.4546 15.2625L11.1308 14.6032ZM11.0874 14.5611L11.7057 13.8472L11.7057 13.8472L11.0874 14.5611ZM9.60844 13.2801L10.2268 12.5662L10.2268 12.5662L9.60844 13.2801ZM9.56489 13.2377L10.2419 12.5793L10.2413 12.5786L9.56489 13.2377ZM9.55709 13.2298L10.2335 12.5706L10.2322 12.5693L9.55709 13.2298ZM8.92689 13.228L8.25533 12.564L8.25399 12.5653L8.92689 13.228ZM15.8246 7.71857V6.77413C15.303 6.77413 14.8801 7.19697 14.8801 7.71857H15.8246ZM16.1284 7.71857H17.0729C17.0729 7.19697 16.65 6.77413 16.1284 6.77413V7.71857ZM16.1284 7.9759V8.92034C16.65 8.92034 17.0729 8.4975 17.0729 7.9759H16.1284ZM15.8246 7.9759H14.8801C14.8801 8.4975 15.303 8.92034 15.8246 8.92034V7.9759ZM2.55556 7.1875V17.8125H4.44444V7.1875H2.55556ZM6.6875 21.9444H17.3125V20.0556H6.6875V21.9444ZM21.4444 17.8125V7.1875H19.5556V17.8125H21.4444ZM17.3125 3.05556H6.6875V4.94444H17.3125V3.05556ZM21.4444 7.1875C21.4444 4.90549 19.5945 3.05556 17.3125 3.05556V4.94444C18.5513 4.94444 19.5556 5.94869 19.5556 7.1875H21.4444ZM17.3125 21.9444C19.5945 21.9444 21.4444 20.0945 21.4444 17.8125H19.5556C19.5556 19.0513 18.5513 20.0556 17.3125 20.0556V21.9444ZM2.55556 17.8125C2.55556 20.0945 4.40549 21.9444 6.6875 21.9444V20.0556C5.44869 20.0556 4.44444 19.0513 4.44444 17.8125H2.55556ZM4.44444 7.1875C4.44444 5.94869 5.44869 4.94444 6.6875 4.94444V3.05556C4.40549 3.05556 2.55556 4.90549 2.55556 7.1875H4.44444ZM9.48226 14.0019C9.53711 13.9554 9.58209 13.9087 9.59213 13.8985L8.24485 12.5746C8.24075 12.5788 8.23885 12.5807 8.23725 12.5823C8.23586 12.5837 8.23605 12.5835 8.23721 12.5824C8.23933 12.5803 8.24795 12.572 8.2612 12.5608L9.48226 14.0019ZM7.56188 15.629L9.48227 14.0019L8.26119 12.5608L6.34081 14.1879L7.56188 15.629ZM7.62136 15.5587C7.60116 15.5877 7.58318 15.6076 7.57282 15.6183C7.56278 15.6286 7.55746 15.6328 7.56189 15.629L6.3408 14.1879C6.27468 14.2439 6.16759 14.3409 6.07094 14.4798L7.62136 15.5587ZM7.63194 15.525C7.63194 15.5371 7.62823 15.5488 7.62136 15.5587L6.07094 14.4798C5.8582 14.7855 5.74306 15.15 5.74306 15.525H7.63194ZM7.63194 17.3698V15.525H5.74306V17.3698H7.63194ZM7.13021 16.8681C7.40731 16.8681 7.63194 17.0927 7.63194 17.3698H5.74306C5.74306 18.1359 6.36411 18.7569 7.13021 18.7569V16.8681ZM16.8698 16.8681H7.13021V18.7569H16.8698V16.8681ZM16.3681 17.3698C16.3681 17.0927 16.5927 16.8681 16.8698 16.8681V18.7569C17.6359 18.7569 18.2569 18.1359 18.2569 17.3698H16.3681ZM16.3681 13.988V17.3698H18.2569V13.988H16.3681ZM16.3862 14.0306C16.3746 14.0195 16.3681 14.0041 16.3681 13.988H18.2569C18.2569 13.4898 18.0538 13.0131 17.6943 12.668L16.3862 14.0306ZM14.7472 12.4572L16.3862 14.0306L17.6943 12.668L16.0553 11.0946L14.7472 12.4572ZM15.437 12.462C15.2423 12.6438 14.9394 12.6417 14.7472 12.4572L16.0553 11.0946C15.524 10.5845 14.6866 10.5786 14.1482 11.0811L15.437 12.462ZM12.4036 15.313L15.4394 12.4598L14.1458 11.0834L11.1099 13.9366L12.4036 15.313ZM10.4639 15.2721C10.986 15.8053 11.8461 15.8334 12.4012 15.3153L11.1123 13.9344C11.3134 13.7468 11.6242 13.7572 11.8136 13.9506L10.4639 15.2721ZM10.4546 15.2625L10.4625 15.2707L11.8149 13.952L11.8069 13.9438L10.4546 15.2625ZM10.469 15.2749C10.4568 15.2643 10.4488 15.2565 10.4468 15.2546C10.4457 15.2535 10.4456 15.2533 10.4469 15.2546C10.4483 15.2561 10.4501 15.258 10.4539 15.2619L11.8076 13.9445C11.7983 13.9349 11.7565 13.8911 11.7057 13.8472L10.469 15.2749ZM8.99011 13.9939L10.469 15.2749L11.7057 13.8472L10.2268 12.5662L8.99011 13.9939ZM8.88783 13.8962C8.8972 13.9058 8.93916 13.9498 8.99011 13.9939L10.2268 12.5662C10.2391 12.5768 10.2471 12.5847 10.2491 12.5866C10.2502 12.5877 10.2503 12.5879 10.249 12.5866C10.2475 12.585 10.2458 12.5832 10.2419 12.5793L8.88783 13.8962ZM8.88067 13.8889L8.88846 13.8969L10.2413 12.5786L10.2335 12.5706L8.88067 13.8889ZM9.59845 13.8921C9.40066 14.0921 9.07891 14.0915 8.88195 13.8902L10.2322 12.5693C9.69065 12.0157 8.79922 12.0139 8.25533 12.564L9.59845 13.8921ZM9.59139 13.8993L9.59979 13.8907L8.25399 12.5653L8.24559 12.5738L9.59139 13.8993ZM15.8246 8.66302H16.1284V6.77413H15.8246V8.66302ZM15.184 7.71857V7.9759H17.0729V7.71857H15.184ZM16.1284 7.03145H15.8246V8.92034H16.1284V7.03145ZM16.769 7.9759V7.71857H14.8801V7.9759H16.769Z" fill="#17907C"/>
</svg>
