<svg width="26" height="26" viewBox="0 0 26 26" fill="none" xmlns="http://www.w3.org/2000/svg">
<path d="M18.6525 12.4526C18.6568 12.5447 18.6646 12.6303 18.6646 12.7167C18.6646 13.9705 18.6681 15.2242 18.6603 16.478C18.6619 16.5963 18.6227 16.7116 18.5493 16.8044C17.5436 17.8663 17.2904 19.0882 17.7663 20.4665C17.7777 20.4991 17.7833 20.5331 17.796 20.5819C17.5273 20.6938 17.2628 20.8071 16.9947 20.9097C16.9375 20.9236 16.8772 20.9171 16.8243 20.8913C16.5987 20.7943 16.3766 20.6896 16.1404 20.5819C16.7125 18.7604 16.3023 17.2362 14.595 16.2635C13.3502 15.5556 12.0489 15.6787 10.9286 16.5757C9.62087 17.6213 9.33584 19.0018 9.87901 20.5763C9.63784 20.6867 9.40232 20.7993 9.16186 20.9005C9.10543 20.921 9.04359 20.921 8.98716 20.9005C8.73397 20.8035 8.4836 20.698 8.23818 20.5975C8.3089 20.2513 8.4157 19.9144 8.45035 19.5703C8.55574 18.4978 8.21555 17.5746 7.45666 16.8058C7.39593 16.7463 7.3579 16.6674 7.34916 16.5828C7.34279 15.215 7.34491 13.8466 7.34491 12.4548L18.6525 12.4526Z" fill="#137363"/>
<path d="M7.91837 25.9974C7.94736 25.2554 7.84764 24.5326 8.07891 23.8247C8.30081 23.1495 8.72867 22.5609 9.30226 22.1418C9.87585 21.7227 10.5663 21.4942 11.2764 21.4885H12.5827C11.1463 20.9221 10.5232 19.943 10.792 18.7233C11.0239 17.6706 12.0311 16.9039 13.0983 16.9676C14.2773 17.0384 15.1678 17.8844 15.2646 19.0659C15.346 20.0648 14.7229 21.1501 13.4717 21.4885C13.8834 21.4885 14.295 21.4885 14.7066 21.4885C15.4543 21.4732 16.1836 21.7216 16.7669 22.1901C17.6156 22.8633 18.0732 23.7475 18.0873 24.8406C18.0923 25.2186 18.0873 25.5974 18.0873 25.9974H7.91837Z" fill="#137363"/>
<path d="M7.9383 8.47487C7.75795 6.56697 8.79338 5.02436 10.5438 4.61588C10.8975 4.53305 11.2773 4.54509 11.6457 4.52951C11.9442 4.51606 12.2441 4.52951 12.5496 4.50969C11.9492 4.34545 11.4548 4.03183 11.1139 3.50866C10.9467 3.25873 10.8316 2.97766 10.7753 2.68222C10.7191 2.38678 10.7228 2.08301 10.7864 1.78906C10.9901 0.764671 11.952 -0.00981714 13.0164 9.40591e-05C14.0943 0.0100053 15.0406 0.787327 15.2252 1.81314C15.4494 3.05841 14.8475 3.98086 13.4203 4.52668C13.9047 4.52668 14.3439 4.52668 14.7831 4.52668C16.5513 4.53588 18.0754 6.05229 18.0882 7.82003C18.0882 8.03241 18.0882 8.24479 18.0882 8.47417L7.9383 8.47487Z" fill="#137363"/>
<path d="M5.73158 21.4486C6.2691 21.4826 6.91058 21.5151 7.54994 21.5689C7.71119 21.5824 7.8675 21.6638 8.09028 21.7346C6.86178 22.9282 6.72528 24.4283 6.81722 26H0.0438216C-0.113897 24.3356 0.0876719 22.9041 1.76387 21.908C2.24434 21.6225 2.79434 21.4755 3.35308 21.4833C3.76753 21.4833 4.18198 21.4833 4.60634 21.4656C4.00375 21.278 3.50514 20.9544 3.17273 20.4115C3.0077 20.1499 2.899 19.8568 2.85357 19.5508C2.80815 19.2449 2.827 18.9328 2.90892 18.6345C3.03895 18.1536 3.32374 17.729 3.7192 17.4265C4.11466 17.1239 4.59873 16.9603 5.09647 16.9609C6.11774 16.9609 7.05486 17.6526 7.26775 18.6402C7.35049 19.0225 7.32503 19.4458 7.26775 19.838C7.20003 20.2451 6.98003 20.6111 6.65243 20.8617C6.33841 21.1045 5.98478 21.29 5.73158 21.4486Z" fill="#137363"/>
<path d="M17.9283 21.7498C18.7501 21.3689 19.5783 21.5254 20.3917 21.4666C18.9411 20.7296 18.4212 19.8589 18.719 18.6773C18.8407 18.1804 19.1276 17.7398 19.5326 17.4277C19.9376 17.1156 20.4365 16.9506 20.9476 16.9598C22.0601 16.9896 22.9279 17.7329 23.1464 18.8465C23.365 19.9601 22.7652 20.8656 21.3656 21.485C21.7722 21.485 22.1435 21.497 22.5092 21.485C24.3834 21.4142 25.9542 22.9398 25.996 24.7592C26.0052 25.1635 25.996 25.5684 25.996 25.9953H19.1964C19.2813 24.4435 19.1667 22.9356 17.9283 21.7498Z" fill="#137363"/>
<path d="M5.65598 11.2888V9.63574H20.3422V11.2888H5.65598Z" fill="#137363"/>
</svg>
