<svg width="25" height="25" viewBox="0 0 25 25" fill="none" xmlns="http://www.w3.org/2000/svg">
<path fill-rule="evenodd" clip-rule="evenodd" d="M12.5161 6.0283C11.9252 6.0283 11.4463 6.50727 11.4463 7.09811C11.4463 7.68895 11.9252 8.16792 12.5161 8.16792C13.1069 8.16792 13.5859 7.68895 13.5859 7.09811C13.5859 6.50727 13.1069 6.0283 12.5161 6.0283ZM9.91797 7.09811C9.91797 5.66321 11.0812 4.5 12.5161 4.5C13.951 4.5 15.1142 5.66321 15.1142 7.09811C15.1142 8.53301 13.951 9.69623 12.5161 9.69623C11.0812 9.69623 9.91797 8.53301 9.91797 7.09811ZM12.5161 11.5302C11.9252 11.5302 11.4463 12.0092 11.4463 12.6C11.4463 13.1908 11.9252 13.6698 12.5161 13.6698C13.1069 13.6698 13.5859 13.1908 13.5859 12.6C13.5859 12.0092 13.1069 11.5302 12.5161 11.5302ZM9.91797 12.6C9.91797 11.1651 11.0812 10.0019 12.5161 10.0019C13.951 10.0019 15.1142 11.1651 15.1142 12.6C15.1142 14.0349 13.951 15.1981 12.5161 15.1981C11.0812 15.1981 9.91797 14.0349 9.91797 12.6ZM12.5161 17.0321C11.9252 17.0321 11.4463 17.511 11.4463 18.1019C11.4463 18.6927 11.9252 19.1717 12.5161 19.1717C13.1069 19.1717 13.5859 18.6927 13.5859 18.1019C13.5859 17.511 13.1069 17.0321 12.5161 17.0321ZM9.91797 18.1019C9.91797 16.667 11.0812 15.5038 12.5161 15.5038C13.951 15.5038 15.1142 16.667 15.1142 18.1019C15.1142 19.5368 13.951 20.7 12.5161 20.7C11.0812 20.7 9.91797 19.5368 9.91797 18.1019Z" fill="black"/>
</svg>
