<svg width="24" height="24" viewBox="0 0 24 24" fill="none" xmlns="http://www.w3.org/2000/svg">
<path d="M14.4 15.1404V14.9466M14.3995 12.1375V11.9437M14.3995 9.14741V8.95358M5.01178 3.45996H12.0011C12.0408 4.87503 13.2003 6.00996 14.625 6.00996C16.0497 6.00996 17.2093 4.87503 17.249 3.45996H18.9882C21.0934 3.45996 22.8 5.16655 22.8 7.27173V16.7287C22.8 18.8338 21.0934 20.5404 18.9882 20.5404H17.249C17.2093 19.1254 16.0497 17.9904 14.625 17.9904C13.2003 17.9904 12.0408 19.1254 12.0011 20.5404H5.01179C2.90661 20.5404 1.20003 18.8338 1.20003 16.7287L1.20001 7.27173C1.20001 5.16655 2.9066 3.45996 5.01178 3.45996Z" stroke="#737373" stroke-width="2" stroke-linecap="round" stroke-linejoin="round"/>
</svg>
