<svg width="28" height="28" viewBox="0 0 28 28" fill="none" xmlns="http://www.w3.org/2000/svg">
<path d="M0.00143873 12.8408C0.0243656 12.7444 0.0423565 12.6469 0.0553386 12.5486C0.0948652 12.1205 0.353585 11.818 0.774004 11.745C1.30222 11.6493 1.83116 11.5579 2.36153 11.4776C2.50527 11.4557 2.57354 11.4096 2.60732 11.2584C2.88887 9.98758 3.38229 8.77512 4.06621 7.67352C4.08611 7.62525 4.09471 7.57293 4.09134 7.5207C4.08797 7.46847 4.07273 7.41775 4.04681 7.37253C3.76725 6.95026 3.46685 6.54114 3.17579 6.12618C2.84376 5.65351 2.84088 5.27434 3.23327 4.84769C3.74065 4.29611 4.26959 3.76353 4.81434 3.24848C5.18876 2.8927 5.56319 2.89562 5.98505 3.19808C6.4069 3.50053 6.82158 3.79421 7.22978 4.10617C7.3577 4.20406 7.44538 4.21356 7.58408 4.12443C8.64523 3.42676 9.82204 2.93048 11.0574 2.65965C11.2191 2.62458 11.273 2.53546 11.296 2.38788C11.3679 1.89402 11.4498 1.40089 11.5238 0.906294C11.6072 0.351065 11.9054 0.0756423 12.4581 0.044228C12.637 0.0347307 12.8174 0.00623592 12.9935 0.000391394C13.3341 -0.00983652 13.5512 0.18084 13.5533 0.519822C13.5605 1.75886 13.5605 2.99814 13.5533 4.23767C13.5533 4.54962 13.3923 4.72934 13.0797 4.75637C12.1454 4.83673 11.2299 4.9887 10.3646 5.35617C7.24631 6.67923 5.31812 9.01776 4.79709 12.4229C4.44189 14.7164 4.97604 17.0605 6.28705 18.9616C7.59806 20.8627 9.58363 22.1724 11.8256 22.6151C12.2367 22.6983 12.66 22.721 13.0761 22.7794C13.4017 22.8255 13.5533 22.9935 13.554 23.3252C13.5583 24.5462 13.5583 25.7672 13.554 26.9882C13.554 27.3608 13.3384 27.5588 12.9719 27.5405C12.7392 27.5326 12.507 27.5126 12.2762 27.4806C11.8551 27.4141 11.6021 27.1329 11.5281 26.6668C11.4498 26.1736 11.3707 25.6798 11.3025 25.1852C11.2773 24.9981 11.1911 24.9112 11.0092 24.871C9.80907 24.6049 8.66524 24.1232 7.63151 23.4486C7.45903 23.3376 7.34405 23.3405 7.18522 23.4647C6.78637 23.773 6.37529 24.066 5.96349 24.3589C5.5517 24.6519 5.17296 24.6402 4.81363 24.2954C4.27319 23.7774 3.74282 23.247 3.23256 22.6969C2.83945 22.2717 2.84089 21.8933 3.17363 21.4191C3.4611 21.0107 3.74856 20.6023 4.03603 20.1998C4.12514 20.0778 4.1503 19.9857 4.05831 19.8411C3.37638 18.7692 2.88953 17.5814 2.62098 16.3344C2.58002 16.143 2.49665 16.0765 2.30476 16.0509C1.81751 15.9874 1.33313 15.8975 0.850187 15.8054C0.319093 15.7039 0.0984638 15.4438 0.0517506 14.9032C0.0403537 14.8334 0.0230346 14.7647 0 14.6979L0.00143873 12.8408Z" fill="#137363"/>
<path d="M13.5511 13.7907V20.2438C13.5511 20.7552 13.3786 20.9115 12.8762 20.8648C9.70837 20.5726 7.07302 18.047 6.61523 14.8698C6.06689 11.0665 8.41189 7.61307 12.1022 6.79045C12.3824 6.73008 12.6662 6.68858 12.9517 6.66625C13.375 6.63045 13.5482 6.80067 13.5504 7.22952C13.5504 7.73068 13.5504 8.23186 13.5504 8.73302L13.5511 13.7907Z" fill="#137363"/>
<path d="M14.4854 11.8584V10.9218H21.2667C21.7921 10.9218 21.9401 10.7757 21.9408 10.2417C21.9408 9.57687 21.9351 8.91132 21.9408 8.24578C21.9408 8.07044 21.8956 7.98058 21.7332 7.89365C21.4574 7.74559 21.2389 7.50736 21.1128 7.21745C20.9867 6.92753 20.9604 6.60286 21.0382 6.2959C21.1137 5.99852 21.2812 5.73363 21.5158 5.54019C21.7505 5.34674 22.04 5.23494 22.3419 5.22123C22.6593 5.20638 22.9723 5.30173 23.2295 5.4916C23.4866 5.68148 23.6726 5.95459 23.7568 6.26611C23.8411 6.57762 23.8186 6.909 23.6931 7.20582C23.5677 7.50264 23.3466 7.74725 23.0663 7.89949C23.0018 7.92528 22.9476 7.972 22.912 8.03239C22.8764 8.09277 22.8614 8.16343 22.8694 8.23336C22.8773 8.96393 22.8823 9.69449 22.8694 10.4199C22.8543 11.2784 22.2865 11.8657 21.4464 11.8694C19.1697 11.8796 16.8922 11.8694 14.6191 11.8694C14.5832 11.8716 14.5487 11.865 14.4854 11.8584Z" fill="#137363"/>
<path d="M14.4803 16.615V15.6777C14.5802 15.6733 14.6737 15.6646 14.7678 15.6646C16.9554 15.6646 19.1428 15.6646 21.33 15.6646C22.3181 15.6646 22.8736 16.2329 22.8765 17.2411C22.8765 17.9337 22.8816 18.6292 22.8765 19.3188C22.8692 19.3844 22.8832 19.4505 22.9164 19.5071C22.9497 19.5637 23.0003 19.6077 23.0605 19.6322C23.3595 19.7854 23.5934 20.044 23.7184 20.3597C23.8434 20.6754 23.8509 21.0266 23.7396 21.3476C23.5147 22.0212 22.893 22.3982 22.1744 22.2973C21.8529 22.2441 21.5599 22.0782 21.3461 21.8284C21.1323 21.5787 21.0112 21.2607 21.0037 20.9297C20.9958 20.3453 21.2574 19.8938 21.7755 19.6235C21.8321 19.6013 21.8797 19.5604 21.9107 19.5074C21.9417 19.4544 21.9543 19.3924 21.9466 19.3313C21.9401 18.6387 21.9466 17.9432 21.9466 17.2535C21.9466 16.7787 21.7827 16.6143 21.3134 16.6143C19.1531 16.6143 16.9926 16.6143 14.8318 16.6143L14.4803 16.615Z" fill="#137363"/>
<path d="M14.481 14.2543V13.279H14.7987C18.0509 13.279 21.3028 13.279 24.5546 13.279C24.7292 13.279 24.8341 13.2483 24.9275 13.0671C25.072 12.7915 25.3036 12.5734 25.585 12.4481C25.8664 12.3228 26.1812 12.2977 26.4784 12.3768C26.7857 12.4515 27.0586 12.6308 27.252 12.8848C27.4453 13.1389 27.5474 13.4525 27.5413 13.7736C27.5413 14.4311 27.1173 14.9695 26.4784 15.1412C26.1817 15.2206 25.8673 15.1962 25.5859 15.0717C25.3046 14.9472 25.0726 14.7301 24.9275 14.4552C24.8327 14.2711 24.7256 14.2455 24.5531 14.2455C21.31 14.249 18.0669 14.249 14.8238 14.2455L14.481 14.2543Z" fill="#137363"/>
<path d="M14.4854 8.06582V7.1117H14.7657C15.4125 7.1117 16.0593 7.1117 16.7018 7.1117C17.1121 7.1117 17.2688 6.94732 17.2695 6.53236C17.2695 5.68491 17.2652 4.83745 17.2738 3.98999C17.2738 3.80735 17.2278 3.70872 17.0582 3.61594C16.7633 3.45417 16.5359 3.18936 16.4181 2.87043C16.3002 2.5515 16.2999 2.2 16.4172 1.88085C16.6572 1.2153 17.3292 0.840525 18.0363 0.977141C18.359 1.04769 18.647 1.2316 18.8495 1.49655C19.052 1.76151 19.1562 2.09054 19.1438 2.42585C19.1194 2.94309 18.888 3.35586 18.4366 3.60498C18.257 3.70434 18.2117 3.81466 18.2146 4.00899C18.2246 4.82868 18.2203 5.64911 18.2146 6.4688C18.2146 7.4989 17.6396 8.08043 16.6335 8.08043H14.563C14.5369 8.07687 14.511 8.072 14.4854 8.06582Z" fill="#137363"/>
<path d="M17.2694 23.8034C17.2694 22.8391 17.2745 21.874 17.2694 20.9082C17.2694 20.5999 17.084 20.4319 16.7664 20.4297C16.1124 20.4253 15.4577 20.4297 14.8037 20.4297H14.4918V19.458H15.1206C15.6496 19.458 16.1785 19.458 16.7074 19.458C17.6122 19.458 18.2066 20.049 18.2166 20.9732C18.2274 21.8302 18.2238 22.6864 18.2166 23.5433C18.2166 23.7238 18.2533 23.8356 18.4265 23.9269C18.7053 24.079 18.9239 24.3245 19.0451 24.6216C19.1664 24.9188 19.183 25.2494 19.092 25.5575C19.0284 25.7845 18.9106 25.9919 18.7491 26.1614C18.5876 26.3309 18.3873 26.4571 18.1662 26.5288C17.945 26.6005 17.7098 26.6155 17.4816 26.5724C17.2534 26.5293 17.0392 26.4295 16.8581 26.2818C16.677 26.1342 16.5347 25.9433 16.4438 25.7261C16.3529 25.509 16.3162 25.2724 16.3371 25.0374C16.358 24.8023 16.4357 24.5762 16.5634 24.3791C16.6911 24.1821 16.8648 24.0202 17.0689 23.9079C17.1307 23.8721 17.1954 23.8414 17.2694 23.8034Z" fill="#137363"/>
<path d="M14.4933 9.01346H19.0129C19.0758 9.00965 19.1389 9.01209 19.2012 9.02077C19.4398 9.06752 19.5915 9.21802 19.6073 9.45911C19.6205 9.56944 19.5928 9.68085 19.5296 9.77151C19.4663 9.86218 19.372 9.92558 19.2652 9.94932C19.1969 9.9702 19.126 9.98102 19.0546 9.98146C17.5694 9.98146 16.0817 9.98146 14.5917 9.98146C14.5586 9.97839 14.5257 9.97327 14.4933 9.96612V9.01346Z" fill="#137363"/>
<path d="M14.4868 18.5229V17.5732C14.5493 17.5666 14.6003 17.5571 14.652 17.5571C16.121 17.5571 17.5907 17.5571 19.0596 17.5571C19.4592 17.5571 19.6949 17.8493 19.5835 18.1876C19.4958 18.455 19.2917 18.528 19.0352 18.5273C17.8709 18.5273 16.706 18.5273 15.5418 18.5273L14.4868 18.5229Z" fill="#137363"/>
</svg>
