<svg width="24" height="24" viewBox="0 0 24 24" fill="none" xmlns="http://www.w3.org/2000/svg">
<path fill-rule="evenodd" clip-rule="evenodd" d="M11.3843 4.66577C11.8224 3.77808 13.0882 3.77808 13.5263 4.66577L15.4918 8.64823L19.8867 9.28685C20.8663 9.4292 21.2575 10.6331 20.5486 11.324L17.3684 14.424L18.1192 18.8011C18.2865 19.7768 17.2624 20.5208 16.3862 20.0602L12.4553 17.9935L8.52436 20.0602C7.64816 20.5208 6.62409 19.7768 6.79143 18.8011L7.54217 14.424L4.36198 11.324C3.65312 10.6331 4.04428 9.4292 5.0239 9.28685L9.41882 8.64823L11.3843 4.66577ZM12.4553 5.94858L10.7115 9.4819C10.5375 9.83441 10.2012 10.0787 9.81222 10.1353L5.91297 10.7019L8.7345 13.4522C9.01599 13.7265 9.14444 14.1219 9.07799 14.5093L8.41191 18.3928L11.8995 16.5593C12.2475 16.3764 12.6631 16.3764 13.0111 16.5593L16.4987 18.3928L15.8326 14.5093C15.7661 14.1219 15.8946 13.7265 16.1761 13.4522L18.9976 10.7019L15.0984 10.1353C14.7093 10.0787 14.3731 9.83441 14.1991 9.4819L12.4553 5.94858Z" fill="#FBBC05"/>
</svg>
