<svg width="24" height="16" viewBox="0 0 24 16" fill="none" xmlns="http://www.w3.org/2000/svg">
<path d="M15.1834 2.19922H8.72089V13.7972H15.1834V2.19922Z" fill="#FF5F00"/>
<path d="M9.13122 7.99814C9.13122 5.74412 10.1775 3.59255 11.9419 2.19915C8.74142 -0.321258 4.10486 0.232003 1.58142 3.44911C-0.942017 6.64573 -0.388092 11.2767 2.83288 13.7971C5.52045 15.9077 9.27483 15.9077 11.9624 13.7971C10.1775 12.4037 9.13122 10.2522 9.13122 7.99814Z" fill="#EB001B"/>
<path d="M23.9026 7.99814C23.9026 12.0759 20.5995 15.375 16.5169 15.375C14.8551 15.375 13.2549 14.8217 11.9624 13.7971C15.1629 11.2767 15.7168 6.64573 13.1933 3.42862C12.8241 2.97781 12.4137 2.5475 11.9624 2.19915C15.1629 -0.321258 19.8199 0.232003 22.3229 3.44911C23.3486 4.74005 23.9026 6.33836 23.9026 7.99814Z" fill="#F79E1B"/>
<path d="M23.205 12.5676V12.3217H23.3076V12.2808H23.0614V12.3217H23.164V12.5676H23.205ZM23.6769 12.5676V12.2808H23.5948L23.5127 12.4857L23.4307 12.2808H23.3486V12.5676H23.4102V12.3422L23.4922 12.5267H23.5538L23.6358 12.3422V12.5676H23.6769Z" fill="#F79E1B"/>
</svg>
