<svg width="19" height="19" viewBox="0 0 19 19" fill="none" xmlns="http://www.w3.org/2000/svg">
<path fill-rule="evenodd" clip-rule="evenodd" d="M16.1537 2.76098C14.3764 0.98142 12.0127 0.00090287 9.49412 0C4.30443 0 0.0808068 4.22318 0.079001 9.41423C0.0780981 11.0737 0.511928 12.6934 1.3358 14.1209L0 19L4.99107 17.6908C6.36613 18.4411 7.91455 18.8361 9.49007 18.8366H9.49412C14.6829 18.8366 18.907 14.6129 18.9088 9.4219C18.9097 6.90608 17.9314 4.54099 16.1537 2.76143V2.76098ZM9.49412 17.2466H9.49097C8.08699 17.2462 6.70969 16.8688 5.50798 16.156L5.22221 15.9863L2.26034 16.7631L3.0508 13.8753L2.86481 13.5792C2.08157 12.3332 1.6676 10.8931 1.6685 9.4147C1.67031 5.10032 5.18067 1.58995 9.49732 1.58995C11.5874 1.59086 13.5521 2.4057 15.0296 3.88505C16.5072 5.36396 17.3202 7.33042 17.3193 9.421C17.3175 13.7358 13.8072 17.2462 9.49412 17.2462V17.2466ZM13.7864 11.3861C13.5512 11.2683 12.3946 10.6994 12.1788 10.6209C11.963 10.5423 11.8064 10.5031 11.6497 10.7387C11.4931 10.9744 11.0421 11.5044 10.9049 11.661C10.7676 11.8181 10.6304 11.8376 10.3952 11.7197C10.16 11.6019 9.40204 11.3536 8.50324 10.5523C7.80398 9.92839 7.33174 9.15828 7.19454 8.9226C7.0573 8.68697 7.1801 8.55965 7.29744 8.44273C7.40306 8.33711 7.53264 8.16782 7.65045 8.03057C7.76832 7.89333 7.80714 7.79495 7.88566 7.63827C7.96424 7.48117 7.92495 7.34398 7.86628 7.22611C7.80756 7.1083 7.3372 5.95034 7.14081 5.47951C6.94983 5.02086 6.75575 5.08316 6.61173 5.07549C6.47448 5.06871 6.31786 5.06736 6.16076 5.06736C6.00365 5.06736 5.74902 5.12605 5.53325 5.3617C5.31747 5.59733 4.70982 6.16659 4.70982 7.32407C4.70982 8.48155 5.55268 9.60069 5.67049 9.75779C5.7883 9.91489 7.32948 12.2908 9.68914 13.3101C10.2503 13.5525 10.6886 13.6974 11.0304 13.8058C11.5938 13.985 12.1066 13.9598 12.512 13.8992C12.9639 13.8315 13.9038 13.33 14.0997 12.7806C14.2956 12.2312 14.2956 11.7599 14.2369 11.6619C14.1783 11.564 14.0212 11.5048 13.7859 11.387L13.7864 11.3861Z" fill="#404040"/>
</svg>
