<svg width="25" height="25" viewBox="0 0 25 25" fill="none" xmlns="http://www.w3.org/2000/svg">
<path d="M19.4811 24.9906C18.9784 24.6946 18.8597 24.4135 18.964 23.7634C19.1923 22.3386 20.1547 21.3827 21.6271 21.161C21.0761 21.0378 20.6574 20.7841 20.3718 20.3446C20.2335 20.1384 20.1396 19.9056 20.0959 19.6612C20.0522 19.4167 20.0598 19.1658 20.1182 18.9244C20.3138 18.0591 21.1139 17.4775 22.0561 17.5244C22.8908 17.5662 23.6263 18.2919 23.7195 19.165C23.818 20.0858 23.2357 20.8604 22.1826 21.1643C22.8608 21.2621 23.4359 21.5053 23.9093 21.9578C24.577 22.5949 24.8835 23.38 24.845 24.2987C24.8307 24.6463 24.6011 24.8445 24.3129 24.9906H19.4811Z" fill="#137363"/>
<path d="M0.00587432 6.1498C0.12455 5.82376 0.201489 5.47947 0.367766 5.17887C0.854859 4.28293 1.63473 3.79192 2.64282 3.64586C1.51149 3.23376 0.966363 2.45649 1.14307 1.51752C1.31978 0.578543 2.08662 -0.02527 3.06276 0.000812653C3.92023 0.024287 4.64271 0.721347 4.76986 1.64924C4.89115 2.53605 4.2932 3.31722 3.24403 3.6413C4.61858 3.87278 5.54908 4.70612 5.83012 5.9783C5.88021 6.22476 5.90208 6.47612 5.89533 6.72752C5.89011 7.16702 5.56929 7.46631 5.12719 7.46696C3.72851 7.46696 2.32983 7.45588 0.931152 7.47414C0.488399 7.48 0.178666 7.33851 0 6.93097L0.00587432 6.1498Z" fill="#137363"/>
<path d="M0.00584069 23.6728C0.123865 23.3468 0.201456 23.0025 0.367732 22.7019C0.854173 21.8059 1.63404 21.3149 2.68974 21.1617C2.15048 21.045 1.74229 20.8011 1.45081 20.3857C1.30895 20.1906 1.20931 19.9681 1.15823 19.7323C1.10714 19.4966 1.10575 19.2527 1.15413 19.0164C1.33931 18.0702 2.10549 17.486 3.0862 17.5212C3.9391 17.5525 4.6655 18.2704 4.7744 19.1898C4.88003 20.0799 4.27165 20.865 3.23682 21.161C4.34533 21.3247 5.16824 21.8783 5.62664 22.8975C5.77336 23.2235 5.83531 23.5939 5.89595 23.9506C5.9742 24.407 5.81574 24.7767 5.37429 24.988H0.54249C0.300397 24.8855 0.107699 24.6928 0.00518799 24.4507L0.00584069 23.6728Z" fill="#137363"/>
<path d="M17.9344 8.71889C17.8222 8.92885 17.7486 9.12708 17.6247 9.28748C17.3638 9.62134 17.0861 9.93955 16.805 10.2551C16.7118 10.3608 16.7079 10.441 16.7483 10.5773C16.8467 10.9124 17.015 11.0839 17.3945 11.0598C17.6905 11.0409 17.9918 11.1126 18.2917 11.1289C18.8512 11.1596 19.1394 11.4549 19.1394 12.0072C19.1394 12.3483 19.1394 12.69 19.1394 13.0316C19.1394 13.5037 18.859 13.8109 18.3876 13.8539C17.9592 13.893 17.5288 13.9191 17.1011 13.9648C17.0099 13.9892 16.9313 14.0469 16.8807 14.1265C16.6563 14.4453 16.7124 14.7133 17.0052 14.9807C17.2439 15.1978 17.4362 15.4671 17.6429 15.7182C17.9611 16.1029 17.9448 16.4928 17.596 16.8488C17.3517 17.0984 17.1043 17.3455 16.8539 17.5902C16.4985 17.9384 16.1073 17.9541 15.7239 17.6346C15.3926 17.3588 15.062 17.0823 14.7406 16.7954C14.6343 16.7002 14.5534 16.7028 14.4185 16.7413C14.0813 16.8378 13.9138 17.0105 13.934 17.3868C13.9503 17.692 13.8851 18.001 13.8688 18.3088C13.8368 18.8376 13.5375 19.1311 13.0152 19.1324C12.6651 19.1324 12.3155 19.1324 11.966 19.1324C11.4946 19.1324 11.1836 18.85 11.1444 18.3792C11.106 17.9508 11.0825 17.5205 11.0349 17.0927C11.0097 17.0014 10.9516 16.9227 10.8719 16.8717C10.5517 16.6447 10.285 16.7086 10.017 17.0021C9.79922 17.2401 9.53057 17.4324 9.28018 17.6398C8.89611 17.958 8.50617 17.9404 8.15015 17.5915C7.90019 17.3464 7.65284 17.099 7.4081 16.8495C7.05989 16.4941 7.04425 16.1035 7.36441 15.7201C7.64024 15.3889 7.91671 15.0583 8.20362 14.7368C8.29882 14.6305 8.29686 14.549 8.25839 14.4147C8.16189 14.0763 7.98583 13.9106 7.61219 13.9282C7.30637 13.9426 6.9973 13.8813 6.68953 13.863C6.16005 13.8317 5.86792 13.5324 5.86597 13.0095C5.86597 12.6593 5.86597 12.3098 5.86597 11.9603C5.86597 11.4876 6.14635 11.1817 6.61845 11.1394C7.04685 11.1002 7.47721 11.0774 7.90497 11.0291C7.98452 11.0207 8.07386 10.9385 8.12472 10.8661C8.34773 10.5473 8.29426 10.2793 8.00018 10.0113C7.76152 9.79479 7.56981 9.52484 7.3618 9.2751C7.04359 8.89168 7.05989 8.50109 7.4094 8.14506C7.65979 7.88945 7.91215 7.6358 8.16906 7.38671C8.50553 7.06068 8.89937 7.04308 9.26192 7.34238C9.60034 7.62146 9.93551 7.90576 10.2641 8.19658C10.3691 8.28983 10.4493 8.29504 10.5863 8.25396C10.9208 8.1542 11.0929 7.98531 11.0708 7.60711C11.0531 7.30194 11.1197 6.99286 11.136 6.68509C11.1679 6.15496 11.4659 5.86218 11.9889 5.86088C12.3384 5.86088 12.6879 5.86088 13.038 5.86088C13.5023 5.86088 13.8094 6.12822 13.857 6.58793C13.902 7.01569 13.9379 7.4454 13.9581 7.87511C13.9653 8.02313 14.0344 8.06682 14.1478 8.13593C14.4843 8.34981 14.7301 8.25331 14.9858 7.99183C15.2207 7.76692 15.4671 7.55428 15.7239 7.35476C16.108 7.0359 16.4972 7.0509 16.8539 7.39976C17.1095 7.6495 17.3756 7.89337 17.6077 8.16332C17.7388 8.3146 17.8157 8.51414 17.9344 8.71889ZM12.5059 10.2995C11.9266 10.3044 11.3722 10.5358 10.9614 10.9443C10.5506 11.3528 10.316 11.9059 10.3078 12.4852C10.3007 13.6752 11.2925 14.6781 12.4877 14.6905C13.6829 14.7029 14.7008 13.6909 14.6982 12.4917C14.6921 11.9118 14.4589 11.3573 14.0487 10.9472C13.6385 10.5371 13.084 10.3041 12.504 10.2982L12.5059 10.2995Z" fill="#137363"/>
<path d="M21.7477 3.64713C20.589 3.24872 20.0758 2.4845 20.2636 1.45815C20.4247 0.577865 21.2254 -0.0298644 22.1827 0.00339097C23.0095 0.0314298 23.7691 0.748704 23.8669 1.59443C23.9797 2.55819 23.3968 3.35501 22.3274 3.64257C22.9599 3.73256 23.5011 3.94317 23.9517 4.33636C24.7003 4.98843 25.0446 5.81199 24.995 6.80052C24.9849 6.97728 24.9088 7.14381 24.7818 7.26712C24.6548 7.39042 24.486 7.4615 24.309 7.46628C22.8041 7.47237 21.2991 7.47237 19.7941 7.46628C19.4029 7.46628 19.1088 7.12656 19.0971 6.70271C19.0746 5.97272 19.3213 5.25994 19.7902 4.70002C20.2591 4.14009 20.9175 3.77209 21.6401 3.66605L21.7477 3.64713Z" fill="#137363"/>
<path d="M12.131 0.920865C14.4022 0.929994 16.1739 1.36166 17.8379 2.225C18.3752 2.50278 18.4672 3.13202 18.0251 3.48349C17.7545 3.69932 17.4636 3.69541 17.1604 3.53761C16.3549 3.11669 15.4949 2.80947 14.605 2.62471C12.2791 2.14088 10.0588 2.44345 7.92978 3.48806C7.74588 3.58561 7.54066 3.63602 7.33249 3.63477C7.00124 3.6139 6.75737 3.33416 6.70716 3.01204C6.66151 2.72057 6.82779 2.40497 7.12317 2.24978C7.93422 1.82181 8.79401 1.49339 9.68384 1.27168C10.6156 1.03889 11.5618 0.91304 12.131 0.920865Z" fill="#137363"/>
<path d="M12.5053 24.0796C10.9834 24.0719 9.47743 23.7685 8.07123 23.1863C7.6513 23.0129 7.45699 22.6171 7.60435 22.2232C7.75172 21.8294 8.16905 21.6748 8.6131 21.8118C9.35516 22.0406 10.0933 22.3034 10.8529 22.443C12.7439 22.7892 14.5847 22.5486 16.3655 21.8274C16.9706 21.5829 17.5151 21.9833 17.4316 22.6027C17.4165 22.729 17.3667 22.8486 17.2877 22.9482C17.2088 23.0479 17.1037 23.1238 16.9843 23.1674C15.8857 23.6349 14.7186 23.9212 13.5284 24.0151C13.1867 24.0405 12.8483 24.0568 12.5053 24.0796Z" fill="#137363"/>
<path d="M2.04094 8.93285C2.15111 8.93058 2.26035 8.95356 2.36027 9.00004C2.46019 9.04652 2.54814 9.11526 2.61738 9.20099C2.68662 9.28672 2.73532 9.38717 2.75973 9.49464C2.78414 9.6021 2.78362 9.71373 2.75821 9.82096C2.52927 10.6939 2.41011 11.592 2.40348 12.4944C2.40481 13.3965 2.52562 14.2943 2.76277 15.1646C2.88079 15.6002 2.74191 15.9471 2.39044 16.1147C1.9516 16.3253 1.45603 16.0912 1.34714 15.5702C1.18803 14.8014 1.02502 14.0268 0.959814 13.2469C0.857428 11.9893 0.980647 10.7235 1.32366 9.50927C1.42278 9.14281 1.68817 8.9335 2.04094 8.93285Z" fill="#137363"/>
<path d="M24.0697 12.542C24.084 13.5416 23.9269 14.5569 23.6674 15.5591C23.5767 15.9073 23.3668 16.1277 23.0029 16.1831C22.7356 16.2236 22.4037 16.0749 22.2987 15.8062C22.2195 15.6137 22.1988 15.4021 22.2394 15.1979C22.5543 13.9909 22.6847 12.7696 22.5491 11.5306C22.4878 10.9679 22.3619 10.4123 22.2524 9.85613C22.1702 9.44011 22.3906 9.04626 22.7806 8.94715C23.1705 8.84804 23.563 9.07756 23.6778 9.49618C23.9495 10.4883 24.0814 11.5134 24.0697 12.542Z" fill="#137363"/>
<path d="M13.233 12.5022C13.2331 12.5997 13.2136 12.6962 13.1755 12.786C13.1374 12.8758 13.0816 12.9569 13.0114 13.0246C12.9412 13.0922 12.858 13.145 12.7669 13.1797C12.6758 13.2144 12.5786 13.2304 12.4811 13.2266C12.3858 13.2252 12.2916 13.2049 12.2041 13.1668C12.1166 13.1288 12.0375 13.0739 11.9714 13.0051C11.9052 12.9364 11.8534 12.8552 11.8188 12.7663C11.7841 12.6774 11.7675 12.5825 11.7697 12.4872C11.7696 12.3897 11.7891 12.2933 11.8271 12.2036C11.8652 12.1139 11.921 12.0328 11.9911 11.9652C12.0613 11.8976 12.1444 11.8449 12.2354 11.8102C12.3265 11.7755 12.4236 11.7596 12.5209 11.7634C12.6163 11.7647 12.7105 11.785 12.798 11.8229C12.8855 11.8608 12.9647 11.9157 13.0309 11.9844C13.0971 12.0531 13.149 12.1342 13.1837 12.2231C13.2184 12.3119 13.2351 12.4068 13.233 12.5022Z" fill="#137363"/>
</svg>
