<svg width="35" height="25" viewBox="0 0 35 25" fill="none" xmlns="http://www.w3.org/2000/svg">
<path d="M33.9125 4.47841C33.5141 2.98357 32.3406 1.80645 30.8503 1.40695C28.1493 0.680908 17.3181 0.680908 17.3181 0.680908C17.3181 0.680908 6.48708 0.680908 3.78596 1.40695C2.29576 1.80645 1.12205 2.98357 0.723766 4.47841C0 7.1877 0 12.8405 0 12.8405C0 12.8405 0 18.4931 0.723766 21.2027C1.12205 22.6973 2.29576 23.8744 3.78596 24.2741C6.48708 25 17.3181 25 17.3181 25C17.3181 25 28.1493 25 30.8503 24.2741C32.3406 23.8744 33.5141 22.6973 33.9125 21.2027C34.6363 18.4931 34.6363 12.8405 34.6363 12.8405C34.6363 12.8405 34.6363 7.1877 33.9125 4.47841Z" fill="#17907C"/>
<path d="M13.7759 17.9727L22.8285 12.8406L13.7759 7.70814V17.9727Z" fill="white"/>
</svg>
