<svg width="512" height="512" viewBox="0 0 512 512" fill="none" xmlns="http://www.w3.org/2000/svg">
<path fill-rule="evenodd" clip-rule="evenodd" d="M309.073 234.096L212.625 426.976C208.974 434.295 207.253 442.425 207.624 450.596C207.995 458.766 210.446 466.707 214.746 473.665C219.045 480.622 225.05 486.367 232.191 490.354C239.333 494.341 247.374 496.439 255.553 496.448H448.449C456.631 496.448 464.678 494.356 471.824 490.371C478.97 486.386 484.979 480.64 489.281 473.68C493.582 466.719 496.032 458.774 496.399 450.6C496.766 442.426 495.037 434.294 491.377 426.976L394.929 234.096C390.941 226.125 384.814 219.422 377.232 214.737C369.65 210.053 360.913 207.571 352.001 207.571C343.088 207.571 334.352 210.053 326.77 214.737C319.188 219.422 313.06 226.125 309.073 234.096ZM352.001 416C356.244 416 360.314 417.686 363.315 420.686C366.315 423.687 368.001 427.757 368.001 432C368.001 436.243 366.315 440.313 363.315 443.314C360.314 446.314 356.244 448 352.001 448C347.757 448 343.688 446.314 340.687 443.314C337.687 440.313 336.001 436.243 336.001 432C336.001 427.757 337.687 423.687 340.687 420.686C343.688 417.686 347.757 416 352.001 416ZM336.001 304V384C336.001 388.243 337.687 392.313 340.687 395.314C343.688 398.314 347.757 400 352.001 400C356.244 400 360.314 398.314 363.315 395.314C366.315 392.313 368.001 388.243 368.001 384V304C368.001 299.757 366.315 295.687 363.315 292.686C360.314 289.686 356.244 288 352.001 288C347.757 288 343.688 289.686 340.687 292.686C337.687 295.687 336.001 299.757 336.001 304Z" fill="#FFCC71"/>
<path fill-rule="evenodd" clip-rule="evenodd" d="M184.464 485.136C180.949 478.332 178.433 471.057 176.992 463.536C162.208 434.464 150.464 396.08 143.408 352H36C49.8032 383.507 70.1956 411.691 95.8046 434.656C121.414 457.621 151.645 474.834 184.464 485.136ZM214.336 352L187.984 404.688C182.792 387.402 178.703 369.804 175.744 352H214.336ZM24.64 192C19.008 212.384 16 233.84 16 256C16 278.16 19.008 299.616 24.64 320H139.216C137.12 299.504 136 278.064 136 256C136 233.936 137.12 212.496 139.216 192H24.64ZM400.592 192C410.254 199.396 418.106 208.895 423.552 219.776L473.664 320H487.36C492.992 299.616 496 278.16 496 256C496 233.84 492.992 212.384 487.36 192H400.592ZM303.408 192C293.746 199.396 285.894 208.895 280.448 219.776L230.336 320H171.344C169.152 299.584 168 278.128 168 256C168 233.872 169.152 212.416 171.344 192H303.408ZM320.88 24.896C324.528 30.016 328.048 35.616 331.392 41.664C347.888 71.424 360.96 112.384 368.592 160H476C461.727 127.422 440.414 98.4104 413.593 75.0504C386.772 51.6903 355.109 34.5618 320.88 24.896ZM191.12 24.896C156.891 34.5618 125.228 51.6903 98.4073 75.0504C71.5864 98.4104 50.2734 127.422 36 160H143.408C151.04 112.384 164.112 71.424 180.608 41.664C183.952 35.616 187.472 30.016 191.12 24.896ZM336.256 160H175.744C182.736 118.8 194.112 83.296 208.592 57.168C222.304 32.432 237.712 16 256 16C274.288 16 289.696 32.432 303.408 57.168C317.888 83.296 329.264 118.8 336.256 160Z" fill="#17907C"/>
</svg>
