<svg width="360" height="409" viewBox="0 0 360 409" fill="none" xmlns="http://www.w3.org/2000/svg">
<line y1="407.757" x2="360" y2="407.757" stroke="#292F2E"/>
<path d="M248.743 408.225L110.151 408.151C102.146 408.145 94.4712 404.961 88.8128 399.299C83.1544 393.637 79.9758 385.959 79.9758 377.954L80.05 30.4431C80.05 26.4772 80.8314 22.5502 82.3498 18.8865C83.8681 15.2227 86.0935 11.8941 88.8988 9.09078C91.7041 6.28747 95.0342 4.06441 98.699 2.54866C102.364 1.03291 106.291 0.254182 110.257 0.256965L248.849 0.384064C256.854 0.389679 264.529 3.57359 270.187 9.23597C275.846 14.8983 279.024 22.5758 279.024 30.5808L278.961 378.05C278.958 382.015 278.174 385.941 276.654 389.604C275.134 393.266 272.907 396.594 270.101 399.396C267.295 402.198 263.965 404.42 260.3 405.935C256.635 407.45 252.708 408.228 248.743 408.225Z" fill="#292F2E"/>
<path d="M248.7 12.6704H221.829C220.06 12.712 218.38 13.4535 217.157 14.7322C215.934 16.0108 215.268 17.7223 215.305 19.4914V24.3635C215.325 25.2398 215.171 26.1115 214.854 26.9286C214.537 27.7457 214.062 28.4923 213.456 29.1257C212.85 29.7592 212.125 30.267 211.323 30.6203C210.521 30.9735 209.657 31.1653 208.78 31.1845H156.405C155.529 31.1653 154.665 30.9735 153.862 30.6203C153.06 30.267 152.335 29.7592 151.729 29.1257C151.124 28.4923 150.648 27.7457 150.331 26.9286C150.014 26.1115 149.861 25.2398 149.88 24.3635V19.4278C149.917 17.6588 149.251 15.9473 148.028 14.6686C146.805 13.39 145.125 12.6485 143.356 12.6068H133.898H110.384C104.766 12.6068 99.3781 14.8386 95.4054 18.8112C91.4328 22.7839 89.201 28.1719 89.201 33.7901L89.1375 372.944C89.1374 378.553 91.362 383.933 95.3232 387.905C99.2843 391.876 104.659 394.114 110.268 394.128L248.594 394.202C254.213 394.202 259.601 391.97 263.573 387.997C267.546 384.025 269.778 378.637 269.778 373.019L269.852 33.8642C269.855 28.2497 267.628 22.8638 263.662 18.8898C259.696 14.9158 254.315 12.6788 248.7 12.6704Z" fill="white"/>
<path d="M269.841 33.8218C269.841 28.2037 267.609 22.8156 263.637 18.843C259.664 14.8704 254.276 12.6386 248.658 12.6386H221.787C220.018 12.6803 218.338 13.4217 217.115 14.7004C215.892 15.9791 215.226 17.6906 215.263 19.4596V24.3317C215.282 25.2081 215.129 26.0797 214.812 26.8968C214.495 27.7139 214.019 28.4605 213.414 29.094C212.808 29.7274 212.083 30.2353 211.281 30.5885C210.478 30.9418 209.615 31.1335 208.738 31.1527H156.363C155.486 31.1335 154.622 30.9418 153.82 30.5885C153.018 30.2353 152.293 29.7274 151.687 29.094C151.081 28.4605 150.606 27.7139 150.289 26.8968C149.972 26.0797 149.818 25.2081 149.838 24.3317V19.4278C149.875 17.6588 149.209 15.9473 147.986 14.6686C146.763 13.39 145.083 12.6485 143.314 12.6068H133.855H110.342C104.724 12.6068 99.3358 14.8386 95.3632 18.8112C91.3905 22.7839 89.1588 28.1719 89.1588 33.7901L89.0952 66.2216H269.831L269.841 33.8218Z" fill="#F5F5F5"/>
<path d="M255.14 45.7374C255.14 45.8328 251.899 45.9493 247.906 45.981C245.494 46.064 243.079 46.0216 240.672 45.854C245.489 45.568 250.318 45.5291 255.14 45.7374Z" fill="#292F2E"/>
<path d="M255.204 49.4339C252.802 49.6412 250.391 49.7226 247.98 49.6775C245.568 49.7605 243.154 49.7181 240.746 49.5504C240.746 49.4551 243.977 49.3492 247.98 49.3068C251.984 49.2645 255.204 49.3386 255.204 49.4339Z" fill="#292F2E"/>
<path d="M255.204 53.1409C255.204 53.2362 251.973 53.3422 247.98 53.3739C245.568 53.4569 243.154 53.418 240.746 53.2574C245.56 52.9714 250.386 52.9326 255.204 53.1409Z" fill="#292F2E"/>
<path d="M129.28 301.843L130.011 300.307C131.298 301.351 132.908 301.912 134.565 301.896C136.938 301.896 137.965 300.974 137.965 299.777C137.965 296.42 129.619 298.538 129.619 293.423C129.619 291.304 131.271 289.482 134.915 289.482C136.479 289.453 138.017 289.88 139.342 290.711L138.696 292.268C137.566 291.547 136.255 291.158 134.915 291.145C132.574 291.145 131.568 292.13 131.568 293.338C131.568 296.706 139.914 294.598 139.914 299.693C139.914 301.811 138.219 303.612 134.618 303.612C132.686 303.666 130.797 303.04 129.28 301.843Z" fill="#292F2E"/>
<path d="M141.524 298.199C141.512 297.482 141.649 296.769 141.925 296.107C142.201 295.445 142.611 294.846 143.129 294.349C143.647 293.852 144.262 293.467 144.935 293.219C145.608 292.97 146.325 292.863 147.042 292.903C147.884 292.854 148.723 293.035 149.469 293.427C150.216 293.819 150.841 294.407 151.279 295.128L149.849 296.049C149.543 295.578 149.121 295.194 148.624 294.932C148.127 294.671 147.572 294.541 147.01 294.556C146.071 294.606 145.187 295.015 144.54 295.698C143.893 296.38 143.532 297.285 143.532 298.226C143.532 299.166 143.893 300.071 144.54 300.754C145.187 301.437 146.071 301.845 147.01 301.896C147.572 301.913 148.129 301.785 148.626 301.523C149.124 301.262 149.545 300.875 149.849 300.402L151.279 301.313C150.84 302.034 150.214 302.622 149.469 303.015C148.723 303.409 147.884 303.593 147.042 303.548C146.321 303.588 145.6 303.478 144.924 303.225C144.248 302.973 143.631 302.583 143.113 302.081C142.595 301.578 142.186 300.974 141.912 300.306C141.639 299.638 141.507 298.921 141.524 298.199Z" fill="#292F2E"/>
<path d="M161.997 297.119V303.41H160.207V302.034C159.81 302.551 159.287 302.959 158.689 303.22C158.091 303.482 157.436 303.587 156.786 303.527C154.424 303.527 152.92 302.267 152.92 300.455C152.92 298.644 153.98 297.405 157.157 297.405H160.155V297.034C160.155 295.446 159.222 294.513 157.358 294.513C156.162 294.504 154.997 294.899 154.054 295.636L153.259 294.217C154.509 293.308 156.025 292.838 157.57 292.882C160.388 292.882 161.997 294.259 161.997 297.119ZM160.112 300.222V298.771H157.199C155.325 298.771 154.795 299.492 154.795 300.381C154.795 301.271 155.664 302.076 157.094 302.076C157.728 302.123 158.36 301.969 158.902 301.636C159.444 301.304 159.867 300.809 160.112 300.222Z" fill="#292F2E"/>
<path d="M175.406 297.405V303.41H173.51V297.627C173.51 295.583 172.451 294.577 170.704 294.577C170.247 294.542 169.787 294.61 169.359 294.774C168.931 294.938 168.545 295.195 168.228 295.526C167.911 295.857 167.671 296.254 167.526 296.689C167.381 297.124 167.334 297.585 167.388 298.04V303.41H165.503V292.978H167.293V294.556C167.741 293.997 168.315 293.553 168.97 293.262C169.624 292.971 170.338 292.841 171.053 292.882C173.648 292.882 175.406 294.344 175.406 297.405Z" fill="#292F2E"/>
<path d="M188.805 297.405V303.41H186.919V297.627C186.919 295.583 185.86 294.577 184.102 294.577C183.645 294.542 183.186 294.609 182.759 294.773C182.331 294.937 181.945 295.194 181.629 295.526C181.313 295.857 181.074 296.255 180.93 296.69C180.787 297.125 180.741 297.586 180.797 298.04V303.41H178.944V292.978H180.755V294.556C181.201 293.995 181.776 293.551 182.43 293.259C183.085 292.968 183.8 292.839 184.515 292.882C187.015 292.882 188.805 294.344 188.805 297.405Z" fill="#292F2E"/>
<path d="M191.982 289.747C191.972 289.491 192.038 289.238 192.173 289.02C192.307 288.802 192.504 288.63 192.738 288.525C192.972 288.42 193.232 288.388 193.484 288.432C193.736 288.476 193.969 288.595 194.154 288.773C194.338 288.951 194.464 289.18 194.517 289.431C194.57 289.681 194.546 289.942 194.449 290.179C194.352 290.416 194.187 290.619 193.973 290.761C193.76 290.903 193.509 290.978 193.253 290.976C193.089 290.98 192.925 290.952 192.772 290.892C192.618 290.832 192.478 290.742 192.36 290.628C192.242 290.514 192.148 290.377 192.083 290.226C192.018 290.074 191.984 289.912 191.982 289.747ZM192.311 292.978H194.207V303.41H192.311V292.978Z" fill="#292F2E"/>
<path d="M207.711 297.405V303.41H205.815V297.627C205.815 295.583 204.755 294.577 202.997 294.577C202.541 294.542 202.082 294.609 201.654 294.773C201.226 294.937 200.841 295.194 200.524 295.526C200.208 295.857 199.97 296.255 199.826 296.69C199.682 297.125 199.636 297.586 199.693 298.04V303.41H197.807V292.978H199.619V294.556C200.066 293.997 200.641 293.553 201.295 293.262C201.949 292.971 202.664 292.841 203.379 292.882C205.91 292.882 207.711 294.344 207.711 297.405Z" fill="#292F2E"/>
<path d="M221.247 292.978V302.002C221.247 305.677 219.383 307.351 215.834 307.351C214.045 307.426 212.284 306.875 210.856 305.794L211.757 304.343C212.9 305.24 214.317 305.719 215.771 305.698C218.239 305.698 219.361 304.554 219.361 302.192V301.366C218.892 301.896 218.312 302.315 217.662 302.593C217.012 302.871 216.308 303.002 215.601 302.976C214.919 303.007 214.238 302.9 213.598 302.661C212.959 302.421 212.374 302.054 211.88 301.583C211.387 301.111 210.993 300.544 210.725 299.916C210.456 299.288 210.318 298.612 210.318 297.929C210.318 297.246 210.456 296.571 210.725 295.943C210.993 295.315 211.387 294.748 211.88 294.276C212.374 293.804 212.959 293.438 213.598 293.198C214.238 292.958 214.919 292.851 215.601 292.882C216.333 292.853 217.061 292.993 217.729 293.29C218.398 293.588 218.989 294.035 219.457 294.598V292.978H221.247ZM219.393 297.924C219.433 297.204 219.256 296.488 218.885 295.869C218.514 295.251 217.965 294.758 217.31 294.455C216.656 294.152 215.925 294.052 215.213 294.169C214.501 294.286 213.841 294.615 213.318 295.112C212.795 295.608 212.433 296.251 212.279 296.956C212.125 297.661 212.187 298.396 212.456 299.065C212.725 299.735 213.189 300.308 213.787 300.711C214.386 301.113 215.092 301.327 215.813 301.324C216.277 301.36 216.743 301.298 217.182 301.142C217.62 300.986 218.021 300.74 218.359 300.419C218.696 300.099 218.963 299.711 219.141 299.281C219.319 298.852 219.405 298.389 219.393 297.924Z" fill="#292F2E"/>
<path d="M223.959 302.171C223.956 301.994 223.989 301.819 224.055 301.655C224.122 301.491 224.221 301.342 224.347 301.217C224.472 301.093 224.622 300.995 224.786 300.929C224.951 300.864 225.127 300.832 225.304 300.837C225.661 300.837 226.003 300.978 226.255 301.231C226.507 301.483 226.649 301.825 226.649 302.182C226.649 302.539 226.507 302.881 226.255 303.133C226.003 303.385 225.661 303.527 225.304 303.527C225.126 303.528 224.949 303.494 224.785 303.426C224.62 303.359 224.471 303.259 224.346 303.132C224.22 303.006 224.122 302.856 224.055 302.691C223.989 302.526 223.956 302.349 223.959 302.171Z" fill="#292F2E"/>
<path d="M228.428 302.171C228.425 301.994 228.458 301.819 228.525 301.655C228.592 301.491 228.691 301.342 228.817 301.217C228.942 301.093 229.092 300.995 229.256 300.929C229.421 300.864 229.597 300.832 229.774 300.837C230.13 300.837 230.472 300.978 230.725 301.231C230.977 301.483 231.119 301.825 231.119 302.182C231.119 302.539 230.977 302.881 230.725 303.133C230.472 303.385 230.13 303.527 229.774 303.527C229.596 303.528 229.419 303.494 229.255 303.426C229.09 303.359 228.941 303.259 228.815 303.132C228.69 303.006 228.591 302.856 228.525 302.691C228.458 302.526 228.426 302.349 228.428 302.171Z" fill="#292F2E"/>
<path d="M232.898 302.171C232.895 301.994 232.928 301.819 232.994 301.655C233.061 301.491 233.16 301.342 233.286 301.217C233.411 301.093 233.561 300.995 233.725 300.929C233.89 300.864 234.066 300.832 234.243 300.837C234.6 300.837 234.942 300.978 235.194 301.231C235.446 301.483 235.588 301.825 235.588 302.182C235.588 302.539 235.446 302.881 235.194 303.133C234.942 303.385 234.6 303.527 234.243 303.527C234.065 303.528 233.888 303.494 233.724 303.426C233.559 303.359 233.41 303.259 233.285 303.132C233.159 303.006 233.061 302.856 232.994 302.691C232.928 302.526 232.895 302.349 232.898 302.171Z" fill="#292F2E"/>
<path d="M118.731 194.486V201.042H125.287V194.486V187.93H118.731V194.486Z" fill="#292F2E"/>
<path d="M125.287 155.138H118.731V161.695H125.287V155.138Z" fill="#292F2E"/>
<path d="M165.8 227.341H159.244V233.898H165.8V227.341Z" fill="#292F2E"/>
<path d="M125.287 168.251V174.807H118.731V181.363H125.287V187.93H131.843H138.399V194.486H144.956V187.93H151.512V181.363V174.807H144.956V181.363H138.399H131.843V174.807V168.251V161.695H125.287V168.251Z" fill="#292F2E"/>
<path d="M138.399 155.138H131.843V161.695H138.399H144.955V155.138H138.399Z" fill="#292F2E"/>
<path d="M167.907 207.853H171.434V201.297H167.907H164.38V207.853H167.907Z" fill="#292F2E"/>
<path d="M151.512 161.695H144.956V168.251H151.512V161.695Z" fill="#292F2E"/>
<path d="M197.416 187.93H190.86V194.486H197.416V187.93Z" fill="#292F2E"/>
<path d="M203.972 115.79H197.416V122.347H203.972V115.79Z" fill="#292F2E"/>
<path d="M164.624 168.251V161.695H171.18V155.138H164.624V148.582H158.068V155.138H151.512V161.695H158.068V168.251V174.807V181.363V187.93H164.624V181.363V174.807H171.18V168.251H164.624Z" fill="#292F2E"/>
<path d="M197.416 233.823H203.972V227.267H197.416H190.86V233.823H197.416Z" fill="#292F2E"/>
<path d="M190.859 115.79H184.303V122.347H190.859V115.79Z" fill="#292F2E"/>
<path d="M189.218 168.251V161.695H182.662V155.138H176.106V161.695V168.251H169.549V174.807H176.106H182.662V168.251H189.218Z" fill="#292F2E"/>
<path d="M226.225 155.138H219.669V161.695H226.225V155.138Z" fill="#292F2E"/>
<path d="M158.258 187.93H151.702V194.486H158.258V187.93Z" fill="#292F2E"/>
<path d="M184.303 148.582V142.026H190.86V135.459H197.416H203.972V128.903H197.416V122.347H190.86V128.903H184.303V135.459H177.747V142.026H171.18V148.582H177.747H184.303Z" fill="#292F2E"/>
<path d="M184.303 194.486V187.93H190.86V181.363H184.303H177.747V187.93H171.18V194.486H177.747H184.303Z" fill="#292F2E"/>
<path d="M203.972 220.711V214.155H197.415H190.859V207.599H184.303V214.155H177.747V220.711H171.18H164.624V227.267H171.18H177.747H184.303V220.711H190.859V227.267H197.415V220.711H203.972Z" fill="#292F2E"/>
<path d="M177.747 122.347V115.79H171.18H164.624V122.347H158.068V128.903H164.624H171.18V122.347H177.747Z" fill="#292F2E"/>
<path d="M177.747 128.903H171.191V135.459H177.747V128.903Z" fill="#292F2E"/>
<path d="M194.132 155.138H187.576V161.695V168.251V174.807H194.132H200.699V168.251H194.132V161.695H200.699V155.138H207.255V148.582H200.699V142.026H194.132V148.582V155.138Z" fill="#292F2E"/>
<path d="M171.18 135.47H164.624V142.026H171.18V135.47Z" fill="#292F2E"/>
<path d="M190.86 201.042V207.599H197.416H203.972V201.042H210.528H217.084V194.486H210.528H203.972H197.416V201.042H190.86Z" fill="#292F2E"/>
<path d="M226.225 174.807H219.669V181.363H226.225V174.807Z" fill="#292F2E"/>
<path d="M203.972 181.363H197.416V187.919H203.972V181.363Z" fill="#292F2E"/>
<path d="M220.368 161.695H213.812H207.255V168.251H213.812V174.807H220.368V168.251V161.695Z" fill="#292F2E"/>
<path d="M217.085 181.363H210.528V187.919H217.085V181.363Z" fill="#292F2E"/>
<path d="M144.955 220.838H164.635V194.476H138.272V201.042H131.843V207.599H138.272V214.155H131.843V220.711H138.272V220.838H138.399V227.267H131.843V240.38H138.399V233.802H144.955V220.838ZM159.582 199.517V215.913H143.187V199.517H159.582Z" fill="#292F2E"/>
<path d="M230.207 194.486H236.764V187.93H230.207H223.651H217.084V194.486H223.651H230.207Z" fill="#292F2E"/>
<path d="M230.208 168.251H236.764V161.695V155.138H230.208V161.695V168.251Z" fill="#292F2E"/>
<path d="M177.991 201.297H171.435V207.853V214.409H177.991V207.853V201.297Z" fill="#292F2E"/>
<path d="M243.32 194.486H236.764V201.042H243.32V194.486Z" fill="#292F2E"/>
<path d="M243.32 181.363V174.807H236.764V181.363V187.93H243.32V181.363Z" fill="#292F2E"/>
<path d="M125.287 227.267H118.731V233.823V240.39H125.287V233.823V227.267Z" fill="#292F2E"/>
<path d="M243.32 148.582V115.748H210.486V148.582H243.32ZM215.443 143.657V120.705H238.395V143.657H215.443Z" fill="#292F2E"/>
<path d="M233.48 125.63H220.368V138.743H233.48V125.63Z" fill="#292F2E"/>
<path d="M243.32 207.599H210.486V240.38H243.32V207.599ZM215.443 235.465V212.513H238.395V235.465H215.443Z" fill="#292F2E"/>
<path d="M233.48 217.438H220.368V230.551H233.48V217.438Z" fill="#292F2E"/>
<path d="M118.646 115.79V148.624H151.405V115.79H118.646ZM146.512 120.705V143.657H123.56V120.705H146.512Z" fill="#292F2E"/>
<path d="M141.587 125.63H128.475V138.743H141.587V125.63Z" fill="#292F2E"/>
<path d="M109.294 138.647V115.346C109.145 113.208 109.802 111.091 111.137 109.414C111.936 108.532 112.919 107.837 114.018 107.38C115.117 106.922 116.303 106.713 117.492 106.766H141.979C142.173 106.766 142.359 106.689 142.496 106.552C142.633 106.415 142.71 106.229 142.71 106.036C142.71 105.842 142.633 105.656 142.496 105.519C142.359 105.382 142.173 105.305 141.979 105.305H117.788C115.74 105.202 113.707 105.715 111.952 106.777C110.691 107.617 109.655 108.753 108.935 110.086C108.215 111.419 107.832 112.909 107.821 114.424C107.758 118.258 107.821 122.103 107.821 125.927V138.637C107.843 138.817 107.93 138.982 108.066 139.103C108.201 139.223 108.376 139.289 108.558 139.289C108.739 139.289 108.914 139.223 109.05 139.103C109.185 138.982 109.272 138.817 109.294 138.637V138.647Z" fill="#17907C"/>
<path d="M139.861 251.459H116.559C114.422 251.602 112.308 250.945 110.628 249.616C109.747 248.816 109.053 247.832 108.596 246.733C108.138 245.635 107.928 244.449 107.98 243.261V218.741C107.98 218.547 107.903 218.361 107.766 218.224C107.629 218.087 107.443 218.01 107.249 218.01C107.055 218.01 106.87 218.087 106.733 218.224C106.595 218.361 106.518 218.547 106.518 218.741V242.964C106.417 245.013 106.93 247.045 107.991 248.8C108.83 250.061 109.967 251.096 111.3 251.814C112.634 252.532 114.123 252.912 115.638 252.92C119.472 252.984 123.306 252.92 127.14 252.92H139.85C140.044 252.92 140.23 252.843 140.367 252.706C140.504 252.569 140.581 252.383 140.581 252.189C140.581 251.996 140.504 251.81 140.367 251.673C140.23 251.536 140.044 251.459 139.85 251.459H139.861Z" fill="#17907C"/>
<path d="M251.963 218.508V241.81C252.112 243.948 251.454 246.064 250.12 247.741C249.321 248.624 248.337 249.319 247.239 249.776C246.14 250.234 244.954 250.443 243.765 250.389H219.245C219.051 250.389 218.865 250.466 218.728 250.603C218.591 250.74 218.514 250.926 218.514 251.12C218.514 251.313 218.591 251.499 218.728 251.636C218.865 251.773 219.051 251.85 219.245 251.85H243.468C245.517 251.953 247.549 251.441 249.304 250.378C250.565 249.538 251.6 248.402 252.318 247.069C253.036 245.735 253.416 244.246 253.424 242.731C253.498 238.897 253.424 235.063 253.424 231.229V218.519C253.424 218.325 253.347 218.139 253.21 218.002C253.073 217.865 252.887 217.788 252.693 217.788C252.5 217.788 252.314 217.865 252.177 218.002C252.04 218.139 251.963 218.325 251.963 218.519V218.508Z" fill="#17907C"/>
<path d="M219.669 106.777H242.97C245.11 106.631 247.226 107.292 248.902 108.63C249.787 109.427 250.483 110.411 250.941 111.51C251.399 112.609 251.607 113.796 251.55 114.985V139.537C251.55 139.731 251.627 139.917 251.764 140.054C251.901 140.191 252.087 140.268 252.28 140.268C252.474 140.268 252.66 140.191 252.797 140.054C252.934 139.917 253.011 139.731 253.011 139.537V115.282C253.114 113.23 252.602 111.194 251.539 109.435C250.699 108.175 249.563 107.14 248.229 106.421C246.896 105.703 245.406 105.323 243.892 105.315C240.058 105.252 236.223 105.315 232.389 105.315H219.679C219.485 105.315 219.3 105.392 219.163 105.529C219.026 105.666 218.948 105.852 218.948 106.046C218.948 106.24 219.026 106.426 219.163 106.563C219.3 106.7 219.485 106.777 219.679 106.777H219.669Z" fill="#17907C"/>
<path d="M235.291 347.789C235.291 347.938 210.306 348.065 179.505 348.065C148.705 348.065 123.708 347.938 123.708 347.789C123.708 347.641 148.684 347.514 179.505 347.514C210.327 347.514 235.291 347.63 235.291 347.789Z" fill="#292F2E"/>
</svg>
