<svg width="102" height="102" viewBox="0 0 102 102" fill="none" xmlns="http://www.w3.org/2000/svg">
<path d="M56.6667 102V90.6667H68V102H56.6667ZM45.3333 90.6667V62.3333H56.6667V90.6667H45.3333ZM90.6667 73.6667V51H102V73.6667H90.6667ZM79.3333 51V39.6667H90.6667V51H79.3333ZM11.3333 62.3333V51H22.6667V62.3333H11.3333ZM0 51V39.6667H11.3333V51H0ZM51 11.3333V0H62.3333V11.3333H51ZM8.5 25.5H25.5V8.5H8.5V25.5ZM0 34V0H34V34H0ZM8.5 93.5H25.5V76.5H8.5V93.5ZM0 102V68H34V102H0ZM76.5 25.5H93.5V8.5H76.5V25.5ZM68 34V0H102V34H68ZM79.3333 102V85H68V73.6667H90.6667V90.6667H102V102H79.3333ZM56.6667 62.3333V51H79.3333V62.3333H56.6667ZM34 62.3333V51H22.6667V39.6667H56.6667V51H45.3333V62.3333H34ZM39.6667 34V11.3333H51V22.6667H62.3333V34H39.6667ZM12.75 21.25V12.75H21.25V21.25H12.75ZM12.75 89.25V80.75H21.25V89.25H12.75ZM80.75 21.25V12.75H89.25V21.25H80.75Z" fill="#292F2E"/>
</svg>
